<svg width="50" height="50" viewBox="0 0 50 50" fill="none" xmlns="http://www.w3.org/2000/svg">
<g clip-path="url(#clip0)">
<path d="M24.9995 9.95557C25.5388 9.95557 25.9761 9.51826 25.9761 8.979V4.00439C25.9761 3.46514 25.5389 3.02783 24.9995 3.02783C24.4602 3.02783 24.0229 3.46504 24.0229 4.00439V8.979C24.023 9.51826 24.4603 9.95557 24.9995 9.95557Z" fill="#07B52D"/>
<path d="M17.6577 11.5594C17.8434 11.854 18.1604 12.0154 18.4848 12.0154C18.6627 12.0154 18.8429 11.9667 19.0045 11.8649C19.4607 11.5774 19.5975 10.9744 19.31 10.518L16.708 6.38959C16.4204 5.93334 15.8174 5.79652 15.3612 6.08412C14.905 6.37162 14.7683 6.97465 15.0558 7.431L17.6577 11.5594Z" fill="#07B52D"/>
<path d="M30.9979 11.8656C31.1595 11.9672 31.3395 12.0158 31.5172 12.0158C31.8416 12.0158 32.1589 11.8543 32.3446 11.5594L34.9438 7.43102C35.2311 6.97457 35.0941 6.37174 34.6376 6.08424C34.181 5.79703 33.5783 5.93414 33.2909 6.39039L30.6917 10.5188C30.4044 10.9754 30.5415 11.5782 30.9979 11.8656Z" fill="#07B52D"/>
<line x1="12.6082" y1="21.7055" x2="10.9914" y2="24.5349" stroke="#07B52D" stroke-width="2.5" stroke-linecap="round" stroke-linejoin="bevel"/>
<path d="M49.6852 26.0187L47.9884 23.0211C47.7226 22.5516 47.1267 22.3865 46.6577 22.6524C46.1882 22.9181 46.0232 23.5139 46.2889 23.9831L47.9849 26.9794C48.0699 27.13 48.0478 27.2752 48.0271 27.3484C48.0072 27.4188 47.9523 27.5488 47.8087 27.628L45.1937 29.0766C44.9614 29.2049 44.6582 29.1239 44.5315 28.9004L43.8671 27.7252C43.8644 27.7199 43.8613 27.7151 43.8584 27.7099L36.9903 15.562C36.9054 15.4125 36.9269 15.2692 36.9472 15.197C36.9668 15.1272 37.0213 14.9982 37.1649 14.9188L39.7831 13.4699C40.0183 13.3397 40.3141 13.4188 40.4427 13.6467L41.9734 16.3511C42.2391 16.8205 42.8351 16.9855 43.3042 16.7199C43.7737 16.4543 43.9387 15.8584 43.6731 15.3891L42.1431 12.6859C41.4906 11.529 40.008 11.1141 38.8378 11.7609L36.2198 13.2097C35.6533 13.5228 35.244 14.0403 35.0674 14.6671C34.9008 15.2581 34.9604 15.8751 35.2332 16.4166L33.791 16.8346C33.1766 17.0123 32.8038 17.1087 32.5968 17.1087C32.5959 17.1087 32.5952 17.1087 32.5944 17.1087C32.4519 17.1082 32.2965 17.0538 31.8531 16.8859C31.6519 16.8097 31.4014 16.7148 31.0935 16.6073L28.5383 15.7141C27.1251 15.2205 26.4877 15.2471 25.5643 15.3314L21.2073 15.7213C19.221 15.8973 17.9547 16.3453 17.2557 17.1224L14.7727 16.403C15.0399 15.8638 15.0972 15.2528 14.9322 14.6671C14.7556 14.0406 14.3466 13.5233 13.7807 13.2102L11.1641 11.7607C9.99302 11.1133 8.50952 11.5284 7.85688 12.685L0.317429 26.0173C-0.0053247 26.5856 -0.0852075 27.2465 0.0927222 27.8784C0.26948 28.506 0.67866 29.0239 1.24409 29.3366L3.86069 30.786C4.23481 30.9928 4.64126 31.091 5.04233 31.091C5.89438 31.091 6.7227 30.6478 7.16792 29.8617L7.44438 29.3727C8.19887 29.7048 8.83237 30.1873 9.26411 30.7586C8.84243 31.2514 8.5768 31.8595 8.50229 32.5209C8.40386 33.3956 8.65092 34.2538 9.198 34.9379C9.74038 35.6161 10.516 36.0441 11.3832 36.1448C11.2915 37.0121 11.5395 37.8619 12.0824 38.5384C12.6435 39.24 13.4366 39.6492 14.2662 39.7458C14.1748 40.6118 14.4219 41.4609 14.9631 42.1377C15.5052 42.8174 16.281 43.2462 17.1492 43.347C17.0573 44.215 17.3053 45.0653 17.8482 45.7418C18.4953 46.5508 19.4505 46.972 20.4149 46.9719C21.1348 46.9719 21.8598 46.7371 22.4651 46.2537L24.5098 44.6176C24.6722 44.488 24.8198 44.3447 24.9525 44.1905L26.1205 45.1235C26.7245 45.6055 27.4478 45.8397 28.1667 45.8396C29.1316 45.8395 30.0884 45.4178 30.7364 44.608C31.0779 44.1811 31.2941 43.6938 31.3917 43.1907C31.7332 43.3089 32.0938 43.3699 32.4614 43.3698C32.5846 43.3698 32.7086 43.363 32.8331 43.3492C33.7081 43.2521 34.4905 42.8218 35.0341 42.14C35.578 41.4624 35.826 40.6127 35.7343 39.7455C36.5633 39.6488 37.3568 39.2396 37.9196 38.5383C38.4801 37.8374 38.7051 36.9745 38.617 36.1447C39.4838 36.0437 40.259 35.6158 40.8001 34.9392C41.3476 34.257 41.5957 33.4 41.4988 32.526C41.4251 31.8625 41.1593 31.2524 40.7369 30.7582C41.1673 30.1871 41.7996 29.704 42.5545 29.3721L42.8316 29.8621C43.2765 30.6479 44.1044 31.0909 44.9567 31.0909C45.358 31.0908 45.7648 30.9926 46.1393 30.7856L48.7544 29.3369C49.3197 29.0244 49.7287 28.5073 49.9061 27.8808C50.085 27.2494 50.0068 26.5885 49.6852 26.0187ZM5.46811 28.8999C5.34116 29.1241 5.03774 29.205 4.80639 29.077L2.18989 27.6278C2.04702 27.5487 1.99253 27.4192 1.9726 27.3489C1.95219 27.2762 1.93042 27.1318 2.01655 26.9804L9.55717 13.6454C9.6435 13.4924 9.8062 13.4067 9.97514 13.4067C10.0574 13.4067 10.141 13.4269 10.2181 13.4696L12.8339 14.9186C12.8342 14.9188 12.8345 14.919 12.8348 14.9191C12.978 14.9983 13.0324 15.1273 13.0521 15.1971C13.0724 15.2693 13.0939 15.4126 13.0081 15.5638L5.46811 28.8999ZM12.5945 33.9253C12.3191 34.1459 11.9713 34.2456 11.616 34.2061C11.2604 34.1666 10.9435 33.9934 10.7234 33.7182C10.5028 33.4423 10.4034 33.0947 10.4433 32.7394C10.4831 32.3856 10.6564 32.0702 10.9332 31.85L14.5892 28.9276C15.163 28.4695 16.003 28.5637 16.4616 29.1364C16.6821 29.4121 16.7816 29.7592 16.7417 30.1134C16.7021 30.4664 16.5287 30.7815 16.2535 31.0004C16.2474 31.0052 16.2422 31.0106 16.2364 31.0156L12.5954 33.9246C12.5951 33.9248 12.5948 33.9251 12.5945 33.9253ZM13.6066 37.3173C13.3862 37.0426 13.2866 36.6964 13.3259 36.3425C13.3653 35.9883 13.5388 35.6715 13.8144 35.4505L13.8147 35.4503C13.8149 35.4502 13.8151 35.45 13.8153 35.4499C13.8154 35.4499 13.8154 35.4498 13.8155 35.4497L19.0817 31.2423C19.6554 30.7841 20.4956 30.8777 20.9541 31.4512C21.1743 31.7265 21.2738 32.0732 21.2344 32.4273C21.195 32.7818 21.0209 33.0986 20.7447 33.3193L15.4798 37.5251C14.9054 37.9835 14.0656 37.891 13.6066 37.3173ZM17.3818 41.4081C17.0263 41.3687 16.7097 41.1952 16.4893 40.9189C16.2691 40.6436 16.1696 40.2969 16.2089 39.9428C16.2484 39.5886 16.4221 39.2721 16.698 39.0514C16.6982 39.0512 16.6985 39.051 16.6987 39.0508L20.343 36.1395C20.3473 36.1362 20.352 36.1333 20.3563 36.1299C20.9286 35.6718 21.7684 35.7651 22.2274 36.3371C22.448 36.6129 22.5475 36.9606 22.5076 37.3158C22.4677 37.6697 22.2944 37.985 22.0177 38.2052L18.3618 41.1276C18.0855 41.3482 17.7374 41.4474 17.3818 41.4081ZM23.78 42.2009C23.7405 42.5551 23.5669 42.8712 23.2906 43.0919L21.2457 44.7283C20.6712 45.1868 19.8314 45.0946 19.3726 44.5207C19.1522 44.2462 19.0525 43.8997 19.0918 43.5451C19.1312 43.1906 19.3045 42.8742 19.5796 42.6545C19.5799 42.6543 19.5803 42.654 19.5806 42.6538L21.6249 41.0197C21.626 41.0188 21.6272 41.0181 21.6283 41.0173C22.2022 40.5593 23.0421 40.6532 23.5007 41.2262C23.7204 41.501 23.8197 41.847 23.78 42.2009ZM39.2759 33.7181C39.0558 33.9933 38.7388 34.1666 38.3834 34.2061C38.0282 34.246 37.6802 34.146 37.4048 33.9253C37.4047 33.9252 37.4045 33.9251 37.4043 33.925C37.4042 33.9249 37.404 33.9248 37.404 33.9247L34.7909 31.8369C34.3694 31.5002 33.7549 31.569 33.4184 31.9903C33.0818 32.4115 33.1504 33.0261 33.5717 33.3627L36.1839 35.4498C36.757 35.9087 36.8514 36.747 36.3954 37.3172C35.9352 37.8906 35.0953 37.9839 34.5218 37.5246L31.6874 35.2627C31.2659 34.9264 30.6514 34.9954 30.315 35.4169C29.9787 35.8384 30.0476 36.4529 30.4692 36.7893L33.3023 39.0501C33.5784 39.2712 33.7521 39.5882 33.7915 39.9428C33.8309 40.2967 33.7313 40.643 33.509 40.9198C33.2894 41.1952 32.9728 41.3686 32.6174 41.4081C32.2617 41.4473 31.9135 41.348 31.6383 41.1283L30.228 40.0004C30.2255 39.9985 30.2234 39.9964 30.2209 39.9945L29.0293 39.0418L28.8066 38.8637C28.3852 38.5268 27.7708 38.5952 27.434 39.0163C27.3919 39.0691 27.3561 39.1247 27.3266 39.1825C27.1852 39.4589 27.1875 39.783 27.3203 40.0548C27.3817 40.1807 27.4702 40.2956 27.5868 40.3889L29.0048 41.523C29.5741 41.9826 29.6671 42.8181 29.2114 43.3879C28.7527 43.9613 27.9126 44.0549 27.3391 43.5974L25.7302 42.312C25.7972 41.4762 25.5496 40.6611 25.0257 40.0061C24.7001 39.5991 24.2963 39.2909 23.8529 39.0842C24.1779 38.6333 24.3842 38.1036 24.4483 37.5341C24.5467 36.6595 24.2997 35.8013 23.7516 35.116C23.4259 34.7102 23.0226 34.4027 22.58 34.1964C22.9056 33.7442 23.112 33.2134 23.1754 32.6431C23.2726 31.7704 23.0253 30.9139 22.4792 30.231C21.5396 29.0562 19.9505 28.699 18.628 29.2604C18.5221 28.7742 18.3058 28.3157 17.9865 27.9163C16.8558 26.5034 14.7853 26.2723 13.3702 27.4014L10.7553 29.4915C10.164 28.7369 9.3602 28.1112 8.40981 27.6649L13.7886 18.1511L16.6525 18.9809C16.6656 19.1341 16.6904 19.2952 16.7319 19.4659C17.4251 22.3163 20.0496 23.6445 23.5811 22.9328C26.5567 22.3341 27.7817 23.226 30.2214 25.0027C30.4746 25.1869 30.7375 25.3784 31.0128 25.5756C32.7674 26.8344 34.6424 28.314 35.8996 29.3168L39.0695 31.8502C39.3449 32.0699 39.5182 32.3864 39.5576 32.7412C39.5969 33.0958 39.4973 33.4423 39.2759 33.7181ZM39.2456 29.4909L37.1183 27.7908C35.8438 26.7741 33.9423 25.2739 32.1508 23.9885C31.8793 23.7941 31.6205 23.6055 31.3712 23.424C28.8414 21.5818 27.0129 20.2507 23.1957 21.0184C22.0274 21.2538 19.2438 21.5291 18.6298 19.0049C18.5433 18.6486 18.6312 18.5261 18.6686 18.4739C18.7992 18.2918 19.3246 17.8488 21.3801 17.6667L25.7417 17.2764C26.4525 17.2115 26.809 17.1789 27.8938 17.5578L30.4493 18.4512C30.7333 18.5504 30.9605 18.6364 31.161 18.7123C32.3915 19.1784 32.7175 19.1783 34.334 18.7105L36.218 18.1646L41.5896 27.6655C40.6389 28.1115 39.8359 28.7367 39.2456 29.4909Z" fill="#253238"/>
<path d="M44.9775 20.6636C45.5168 20.6636 45.9541 20.2249 45.9541 19.6855C45.9541 19.1462 45.5168 18.709 44.9775 18.709C44.4383 18.709 44.001 19.1463 44.001 19.6855V19.6883C44.001 20.2276 44.4383 20.6636 44.9775 20.6636Z" fill="#07B52D"/>
</g>
<defs>
<clipPath id="clip0">
<rect width="50" height="50" fill="white"/>
</clipPath>
</defs>
</svg>
