<svg width="50" height="50" viewBox="0 0 50 50" fill="none" xmlns="http://www.w3.org/2000/svg">
<path d="M1.81055 42.1065L3.36455 42.269C3.74841 38.5947 4.59834 34.9842 5.89385 31.5245L4.43076 30.9761C3.08867 34.56 2.2082 38.3002 1.81055 42.1065Z" fill="#07B52D"/>
<path d="M1.5625 46.8754V48.4379H3.125V46.8754C3.125 45.8529 3.16074 44.8197 3.23105 43.8045L1.67236 43.6963C1.59941 44.7475 1.5625 45.8171 1.5625 46.8754Z" fill="#253238"/>
<path d="M10.9375 47.2038V48.4374H12.5V47.2038C12.4984 44.2597 12.8737 41.3276 13.6169 38.4788L12.1052 38.0835C11.3283 41.0613 10.9359 44.1263 10.9375 47.2038Z" fill="#253238"/>
<path d="M17.4102 36.4897L18.5148 35.3851L20.0771 36.9473L18.9724 38.052L17.4102 36.4897Z" fill="#07B52D"/>
<path d="M14.2856 33.3647L15.3903 32.2601L16.9526 33.8223L15.8479 34.927L14.2856 33.3647Z" fill="#253238"/>
<path d="M11.1611 30.2393L12.2658 29.1346L13.8281 30.6968L12.7234 31.8015L11.1611 30.2393Z" fill="#07B52D"/>
<path d="M8.03711 27.1143L9.1418 26.0096L10.704 27.5718L9.59934 28.6765L8.03711 27.1143Z" fill="#253238"/>
<path d="M4.9126 23.9893L6.01728 22.8846L7.57952 24.4468L6.47483 25.5515L4.9126 23.9893Z" fill="#07B52D"/>
<path d="M47.8851 39.6149L48.9899 38.5101L47.1986 36.7188L48.2087 35.7087C48.2812 35.6361 48.3388 35.55 48.3781 35.4552C48.4173 35.3604 48.4375 35.2589 48.4375 35.1562C48.4375 35.0536 48.4173 34.9521 48.3781 34.8573C48.3388 34.7625 48.2812 34.6764 48.2087 34.6038L43.6677 30.0628L42.5628 31.1677L44.2076 32.8125L34.6038 42.4163L35.7087 43.5212L45.3125 33.9174L46.5515 35.1562L35.1562 46.5515L12.2712 23.6664C12.1369 23.5341 12.03 23.3766 11.9569 23.2028C11.8837 23.0291 11.8457 22.8426 11.8449 22.6541C11.8442 22.4655 11.8808 22.2787 11.9526 22.1044C12.0244 21.9301 12.13 21.7717 12.2633 21.6384C12.3966 21.5051 12.555 21.3995 12.7293 21.3277C12.9036 21.2559 13.0904 21.2193 13.2789 21.22C13.4675 21.2207 13.654 21.2588 13.8277 21.3319C14.0015 21.405 14.159 21.5119 14.2913 21.6462L21.3226 28.6774C21.3951 28.75 21.4812 28.8075 21.576 28.8468C21.6708 28.8861 21.7724 28.9063 21.875 28.9063C21.9776 28.9063 22.0792 28.8861 22.174 28.8468C22.2688 28.8075 22.3549 28.75 22.4274 28.6774C22.5 28.6049 22.5575 28.5188 22.5968 28.424C22.6361 28.3292 22.6563 28.2276 22.6563 28.125C22.6563 28.0224 22.6361 27.9208 22.5968 27.826C22.5575 27.7312 22.5 27.6451 22.4274 27.5726L15.3962 20.5413C15.2619 20.409 15.155 20.2515 15.0819 20.0777C15.0087 19.904 14.9707 19.7175 14.9699 19.529C14.9692 19.3404 15.0058 19.1536 15.0776 18.9793C15.1494 18.805 15.255 18.6466 15.3883 18.5133C15.5216 18.38 15.68 18.2744 15.8543 18.2026C16.0286 18.1308 16.2154 18.0942 16.4039 18.0949C16.5925 18.0956 16.779 18.1337 16.9527 18.2068C17.1265 18.2799 17.284 18.3868 17.4163 18.5211L24.4476 25.5523C24.5941 25.6988 24.7927 25.7811 24.9999 25.7811C25.2071 25.7811 25.4057 25.6988 25.5522 25.5523C25.6938 25.4032 25.7727 25.2054 25.7727 24.9998C25.7727 24.7942 25.6938 24.5964 25.5522 24.4473L18.521 17.416C18.3867 17.2837 18.2798 17.1262 18.2067 16.9524C18.1335 16.7787 18.0955 16.5922 18.0948 16.4037C18.094 16.2151 18.1306 16.0283 18.2024 15.854C18.2742 15.6797 18.3798 15.5213 18.5131 15.388C18.6464 15.2547 18.8048 15.1491 18.9791 15.0773C19.1534 15.0055 19.3402 14.9689 19.5287 14.9696C19.7173 14.9703 19.9038 15.0084 20.0775 15.0815C20.2513 15.1547 20.4088 15.2615 20.5411 15.3958L27.5724 22.4271C27.7189 22.5735 27.9175 22.6558 28.1247 22.6558C28.3319 22.6558 28.5305 22.5735 28.6771 22.4271C28.8192 22.2782 28.8985 22.0803 28.8985 21.8745C28.8985 21.6687 28.8192 21.4708 28.6771 21.322L21.6458 14.2907C21.5115 14.1585 21.4046 14.0009 21.3315 13.8272C21.2583 13.6534 21.2203 13.4669 21.2196 13.2784C21.2188 13.0898 21.2554 12.903 21.3272 12.7287C21.399 12.5544 21.5046 12.396 21.6379 12.2627C21.7712 12.1294 21.9296 12.0238 22.1039 11.952C22.2782 11.8802 22.465 11.8436 22.6535 11.8443C22.8421 11.845 23.0286 11.8831 23.2023 11.9562C23.3761 12.0294 23.5336 12.1362 23.6659 12.2705L33.078 21.6826C33.1835 21.784 33.3151 21.8541 33.4582 21.8849C33.6012 21.9158 33.75 21.9063 33.8879 21.8575C34.0259 21.8087 34.1475 21.7225 34.2393 21.6085C34.331 21.4945 34.3893 21.3573 34.4075 21.2121L34.9524 16.035C34.9874 15.7017 35.1467 15.3939 35.3986 15.173C35.6505 14.9521 35.9765 14.8342 36.3114 14.843C36.6463 14.8518 36.9656 14.9865 37.2056 15.2204C37.4456 15.4542 37.5886 15.7699 37.6061 16.1045L38.1518 26.4727C38.1618 26.6654 38.243 26.8476 38.3795 26.984L41.4882 30.0928L42.5931 28.9879L39.6967 26.0918L39.6266 24.7596L42.1875 22.1989C42.6794 21.693 42.9589 21.018 42.9688 20.3125C42.9697 19.962 42.9012 19.6148 42.7671 19.291C42.633 18.9672 42.436 18.6732 42.1875 18.4261L39.0229 15.2614C38.8806 14.8348 38.641 14.4471 38.3229 14.129C38.0049 13.811 37.6172 13.5714 37.1905 13.4292L26.6568 2.8957C25.8028 2.04218 24.6449 1.56265 23.4375 1.5625C22.2307 1.56596 21.074 2.04499 20.2181 2.8957L6.85322 16.2607L7.95801 17.3656L21.3229 4.00068C21.885 3.44189 22.6448 3.12725 23.4375 3.125C24.2305 3.12516 24.9911 3.44012 25.5521 4.00068L35.0869 13.5352C34.6424 13.7353 34.2557 14.0447 33.9629 14.4346L23.9769 4.90332L22.8981 6.03389L33.3813 16.0399L33.0254 19.4205L24.7712 11.1664C24.3448 10.7397 23.7993 10.4519 23.2064 10.3409C22.6134 10.2299 22.0008 10.3008 21.4489 10.5444C20.897 10.7881 20.4318 11.1929 20.1142 11.7059C19.7967 12.2188 19.6418 12.8158 19.6698 13.4184C19.6238 13.4163 19.5776 13.4153 19.5312 13.4152C19.127 13.4151 18.7269 13.4971 18.3552 13.656C17.9835 13.815 17.648 14.0477 17.3688 14.3401C17.0896 14.6325 16.8726 14.9784 16.731 15.3571C16.5894 15.7357 16.5261 16.1391 16.5448 16.543C16.4988 16.5409 16.4526 16.5399 16.4062 16.5398C16.002 16.5397 15.6018 16.6217 15.2301 16.7807C14.8584 16.9397 14.5228 17.1724 14.2436 17.4648C13.9645 17.7572 13.7475 18.1033 13.6059 18.482C13.4643 18.8606 13.401 19.2641 13.4198 19.668C13.3738 19.666 13.3276 19.6649 13.2812 19.6648C12.6897 19.6649 12.1115 19.8404 11.6196 20.169C11.1278 20.4977 10.7445 20.9648 10.5181 21.5113C10.2917 22.0578 10.2325 22.6592 10.3479 23.2394C10.4633 23.8195 10.7481 24.3525 11.1663 24.7708L24.2857 37.8906L22.6562 39.5201L21.6462 38.5101L20.5413 39.6149L21.5514 40.625L21.0938 41.0823C20.8842 41.2854 20.6039 41.3989 20.3122 41.3989C20.0204 41.3989 19.7401 41.2854 19.5306 41.0823L4.00059 25.552C3.58244 25.1336 3.29771 24.6007 3.1824 24.0206C3.06708 23.4405 3.12636 22.8392 3.35273 22.2928C3.5025 21.9299 3.72273 21.6003 4.00068 21.323L6.85127 18.4724L5.74639 17.3675L2.8959 20.2181C2.47313 20.6409 2.13777 21.1428 1.90899 21.6952C1.6802 22.2476 1.56246 22.8396 1.5625 23.4375C1.56587 24.6443 2.04495 25.8011 2.8958 26.6569L18.426 42.1875C18.9316 42.6798 19.6068 42.9595 20.3125 42.9688C20.663 42.9697 21.0102 42.9011 21.334 42.7671C21.6578 42.6329 21.9518 42.436 22.1989 42.1875L25.3906 38.9955L34.6038 48.2087C34.6764 48.2812 34.7625 48.3388 34.8573 48.3781C34.9521 48.4173 35.0536 48.4375 35.1562 48.4375C35.2589 48.4375 35.3604 48.4173 35.4552 48.3781C35.55 48.3388 35.6361 48.2812 35.7087 48.2087L36.7188 47.1986L38.5101 48.9899L39.6149 47.8851L37.8236 46.0938L46.0938 37.8235L47.8851 39.6149ZM39.4737 21.856L39.9068 22.2695L39.5162 22.6602L39.4737 21.856ZM41.3896 20.3125C41.3922 20.4565 41.3664 20.5996 41.3137 20.7337C41.261 20.8677 41.1823 20.9901 41.0823 21.0938L41.012 21.1641L39.354 19.5809L39.2552 17.7035L41.0823 19.5312C41.2829 19.7415 41.3932 20.0219 41.3896 20.3125Z" fill="#253238"/>
<path d="M31.524 5.89365L30.9756 4.43047C35.9009 2.58477 41.2475 1.61982 46.8668 1.5625L46.8828 3.125C41.4458 3.18037 36.2784 4.11182 31.524 5.89365Z" fill="#253238"/>
<path d="M39.2355 13.6806L38.8896 12.1571C41.3933 11.5891 44.0024 11.2978 46.8666 11.2666L46.8836 12.8291C44.1314 12.8586 41.6298 13.1372 39.2355 13.6806Z" fill="#07B52D"/>
</svg>
