<svg width="50" height="50" viewBox="0 0 50 50" fill="none" xmlns="http://www.w3.org/2000/svg">
<g clip-path="url(#clip0)">
<path d="M48.5929 33.7542C47.5709 32.1 45.4114 31.5677 43.5706 32.5153L35.2257 36.7997C34.5333 36.0627 33.5514 35.6011 32.4632 35.6011H26.7785C26.4379 35.6011 26.3595 35.5734 26.3473 35.5677C26.3001 35.5462 26.154 35.4086 26.0252 35.2871L25.9703 35.2355C21.4024 30.9327 17.5377 31.205 13.1384 32.9378C12.4209 33.2222 12.3935 33.2233 11.6899 33.2544L10.3326 33.256C9.98949 32.1555 8.96195 31.3545 7.7511 31.3545H3.56974C2.07901 31.3545 0.866211 32.5686 0.866211 34.0608V45.0285C0.866211 46.5193 2.07901 47.7321 3.56974 47.7321H7.7511C8.96302 47.7321 9.99125 46.9305 10.3334 45.8296H12.7366C12.9477 45.8296 12.9477 45.8296 13.1842 45.8958C13.2758 45.9215 13.389 45.9533 13.5345 45.9917L24.3487 48.8842C24.8249 49.0133 25.2615 49.1402 25.6838 49.2628C27.0628 49.6634 28.2217 50.0001 29.4294 50C30.7914 50 32.2155 49.5717 34.0865 48.3239C34.0947 48.3183 34.103 48.3127 34.1111 48.3069L47.4453 38.8114C49.1364 37.6067 49.6297 35.4327 48.5929 33.7542ZM8.50149 45.0285C8.50149 45.4352 8.15784 45.779 7.7511 45.779H3.56974C3.163 45.779 2.81934 45.4352 2.81934 45.0285V34.0608C2.81934 33.6525 3.163 33.3076 3.56974 33.3076H7.7511C8.15784 33.3076 8.50149 33.6525 8.50149 34.0608V45.0285ZM46.3123 37.2204L32.9904 46.7073C30.2252 48.5483 29.0536 48.2079 26.2286 47.3872C25.798 47.2622 25.3528 47.1329 24.8566 46.9984L14.0373 44.1044C13.9006 44.0682 13.7958 44.0388 13.7109 44.0151C13.3349 43.9098 13.1942 43.8765 12.7366 43.8765H10.4546V35.2101H11.6523C11.6667 35.2101 11.6813 35.2098 11.6957 35.2091L11.7758 35.2056C12.6328 35.1678 12.8725 35.144 13.856 34.7542C17.7656 33.2141 20.782 33.0317 24.6315 36.6576L24.6853 36.7083C25.3229 37.3094 25.6907 37.5542 26.7784 37.5542H32.4631C33.4779 37.5542 34.3035 38.3812 34.3035 39.3975C34.3035 40.4122 33.4779 41.2378 32.4631 41.2378H23.251C22.7116 41.2378 22.2744 41.6751 22.2744 42.2144C22.2744 42.7536 22.7116 43.191 23.251 43.191H32.4631C34.5548 43.191 36.2566 41.4892 36.2566 39.3975C36.2566 39.0951 36.2201 38.8014 36.153 38.5193L44.4636 34.2524C45.2707 33.8368 46.3776 33.8846 46.9311 34.7808C47.4201 35.572 47.154 36.6209 46.3123 37.2204Z" fill="#253238"/>
<path d="M29.0774 22.1446C29.0774 22.6839 29.5146 23.1212 30.054 23.1212H35.4472C35.9865 23.1212 36.4237 22.6839 36.4237 22.1446V18.9H39.6653C40.2047 18.9 40.6419 18.4627 40.6419 17.9234V12.5303C40.6419 11.991 40.2047 11.5537 39.6653 11.5537H36.4237V8.31201C36.4237 7.77275 35.9865 7.33545 35.4472 7.33545H30.054C29.5146 7.33545 29.0774 7.77275 29.0774 8.31201V11.5537H25.833C25.2937 11.5537 24.8564 11.991 24.8564 12.5303V17.9235C24.8564 18.4628 25.2937 18.9001 25.833 18.9001H29.0774V22.1446ZM26.8095 16.947V13.5068H30.0539C30.5933 13.5068 31.0305 13.0695 31.0305 12.5303V9.28857H34.4705V12.5303C34.4705 13.0695 34.9077 13.5068 35.4471 13.5068H38.6887V16.947H35.4471C34.9077 16.947 34.4705 17.3843 34.4705 17.9235V21.1682H31.0305V17.9235C31.0305 17.3843 30.5933 16.947 30.0539 16.947H26.8095Z" fill="#07B52D"/>
<path d="M21.4311 22.4221C21.7327 22.8691 22.3398 22.9869 22.7868 22.6851C23.2339 22.3834 23.3517 21.7763 23.0499 21.3294C22.0719 19.8805 21.3747 18.5468 21.0324 17.4678C20.9096 17.0872 20.9113 16.9283 20.9162 16.5031C20.9173 16.4139 20.9183 16.3183 20.9183 16.2135V8.41056C20.9235 8.17511 20.9239 7.97745 20.9243 7.81006C20.9245 7.70167 20.9247 7.58487 20.9271 7.49356C21.0062 7.44913 21.1081 7.39483 21.2028 7.34454C21.3412 7.2709 21.5114 7.18028 21.7103 7.06963L32.7492 2.04959L43.7885 7.06983C43.9849 7.17901 44.1523 7.26797 44.295 7.34385C44.39 7.39434 44.4924 7.44864 44.5717 7.49317C44.5738 7.5836 44.574 7.69844 44.5742 7.80499C44.5745 7.96817 44.5748 8.17052 44.5802 8.41065V16.2137C44.5802 16.3186 44.5812 16.4143 44.5822 16.5035C44.587 16.9285 44.5889 17.0874 44.4649 17.4713C43.1504 21.5945 37.3807 28.0088 33.752 30.1749C33.3855 30.3953 33.0575 30.5024 32.7491 30.5024C32.4408 30.5024 32.1127 30.3953 31.7424 30.1728C30.8768 29.6575 29.8489 28.869 28.7699 27.8927C28.37 27.5308 27.7524 27.5616 27.3905 27.9616C27.0285 28.3615 27.0594 28.9791 27.4594 29.3409C28.6496 30.4178 29.7544 31.2624 30.7398 31.8488C31.4189 32.2571 32.0761 32.4556 32.7491 32.4556C33.4221 32.4556 34.0794 32.2571 34.7557 31.8505C38.7445 29.4694 44.8669 22.6404 46.3246 18.0681C46.5455 17.3841 46.5409 16.9857 46.5352 16.4813C46.5342 16.3989 46.5332 16.3107 46.5332 16.2138V8.39972C46.5332 8.39229 46.5331 8.38497 46.533 8.37745C46.5278 8.15089 46.5276 7.96153 46.5273 7.80167C46.5254 6.53867 46.3286 6.2124 45.2113 5.61865C45.0701 5.54355 44.9029 5.45488 44.7051 5.34433C44.6816 5.33115 44.6576 5.31904 44.6332 5.308L33.1535 0.0876713C32.8966 -0.0292237 32.6018 -0.0292237 32.345 0.0876713L20.8651 5.3082C20.8404 5.31933 20.8162 5.33164 20.7926 5.34492C20.5942 5.45586 20.4269 5.54492 20.2855 5.62002C19.1703 6.21338 18.9737 6.54024 18.9712 7.80587C18.9709 7.96485 18.9705 8.15284 18.9653 8.37755C18.9652 8.38497 18.9651 8.39229 18.9651 8.39981V16.2137C18.9651 16.3105 18.9642 16.3988 18.9632 16.481C18.9574 16.9855 18.9529 17.384 19.1723 18.0633C19.5744 19.3312 20.3345 20.7976 21.4311 22.4221Z" fill="#253238"/>
<path d="M24.2845 24.7181C23.9032 25.0995 23.9032 25.7179 24.2845 26.0993L24.2874 26.1021C24.4777 26.2925 24.7267 26.3875 24.9759 26.3875C25.2259 26.3875 25.476 26.2918 25.6671 26.1007C26.0484 25.7193 26.0469 25.0995 25.6656 24.7181C25.2843 24.3368 24.6659 24.3368 24.2845 24.7181Z" fill="#07B52D"/>
</g>
<defs>
<clipPath id="clip0">
<rect width="50" height="50" fill="white"/>
</clipPath>
</defs>
</svg>
