<svg width="50" height="50" viewBox="0 0 50 50" fill="none" xmlns="http://www.w3.org/2000/svg">
<g clip-path="url(#clip0)">
<path d="M11.8557 20.4644H15.6595C16.6982 20.4644 17.5434 19.6216 17.5434 18.5856V14.7909C17.5434 13.755 16.6982 12.9121 15.6595 12.9121H11.8557C10.8185 12.9121 9.97461 13.755 9.97461 14.7909V18.5856C9.97461 19.6216 10.8185 20.4644 11.8557 20.4644ZM11.9277 14.865H15.5901V18.5115H11.9277V14.865Z" fill="#07B52D"/>
<path d="M45.7724 27.2925C45.3047 27.2925 44.8353 27.3926 44.4069 27.5901C44.0776 26.5463 43.2939 25.8751 42.3972 25.5952V4.60791C42.3971 2.06709 40.3261 0 37.7805 0H5.69092C3.14531 0 1.07422 2.06709 1.07422 4.60791V7.20693C1.07422 8.42754 2.06865 9.42061 3.29102 9.42061H4.24268V46.098C4.24268 47.3187 5.23711 48.3117 6.45947 48.3117H32.3044C34.0177 49.4219 35.8863 50.0001 37.7847 50C38.8401 50 39.9051 49.8214 40.9569 49.4564C43.2258 48.6694 45.2528 47.0239 46.6647 44.8229C48.1618 42.4892 48.9436 39.6175 48.9255 36.524V30.5648C48.9255 28.4165 47.3393 27.2925 45.7724 27.2925ZM6.1958 46.098V9.42061H15.1436C15.6829 9.42061 16.1201 8.9834 16.1201 8.44414C16.1201 7.90488 15.6829 7.46768 15.1436 7.46768H3.29102C3.14814 7.46768 3.02734 7.34824 3.02734 7.20684V4.60791C3.02734 3.14395 4.22217 1.95293 5.69092 1.95293H34.0092C33.4769 2.70391 33.1639 3.62002 33.1639 4.60791V7.20693C33.1639 7.34834 33.0432 7.46777 32.9002 7.46777H23.9331C23.3937 7.46777 22.9565 7.90498 22.9565 8.44424C22.9565 8.9835 23.3937 9.4207 23.9331 9.4207H32.9002C34.1226 9.4207 35.117 8.42764 35.117 7.20703V4.60791C35.117 3.14395 36.3118 1.95293 37.7805 1.95293C39.2491 1.95293 40.4439 3.14395 40.4439 4.60791V25.5947C40.3122 25.6358 40.1825 25.6844 40.0567 25.7424C39.6114 24.3299 38.3345 23.5974 37.0702 23.5974C36.6624 23.5974 36.2536 23.6734 35.8716 23.824V18.3254C35.8716 16.177 34.2861 15.0529 32.7199 15.0529C31.1536 15.0529 29.5682 16.177 29.5682 18.3254V32.4358C29.5682 32.8803 29.5763 33.2855 29.5833 33.6432C29.5842 33.6817 29.585 33.7208 29.5856 33.76L27.3157 31.3265C25.9934 29.9109 24.0813 29.7657 22.6662 30.9735C21.2736 32.1621 20.6321 34.5015 22.186 36.4957L28.9642 45.1952C29.2865 45.6089 29.6217 45.9964 29.9674 46.3588H6.45947C6.3165 46.3588 6.1958 46.2394 6.1958 46.098ZM46.9724 36.5297C47.0034 41.8484 44.3909 46.1983 40.3168 47.6115C36.8701 48.8068 33.2019 47.4552 30.5049 43.995L23.7269 35.2956C22.9185 34.2581 23.2304 33.0597 23.9343 32.459C24.0985 32.3188 24.4129 32.1066 24.8102 32.1066C25.1278 32.1066 25.4986 32.2423 25.888 32.6591L28.266 35.2085C28.9372 35.9274 29.7719 36.8223 30.6976 36.4471C31.435 36.1479 31.5036 35.3145 31.5262 35.0407C31.5571 34.6641 31.5478 34.1964 31.536 33.6043C31.5292 33.2559 31.5213 32.8609 31.5213 32.4359V18.3254C31.5213 17.0694 32.5198 17.0059 32.7199 17.0059C32.92 17.0059 33.9185 17.0694 33.9185 18.3254V32.3059C33.9185 32.8451 34.3558 33.2823 34.895 33.2823C35.4343 33.2823 35.8716 32.8451 35.8716 32.3059V26.8698C35.8716 25.6139 36.8701 25.5503 37.0702 25.5503C37.3861 25.5503 37.6877 25.6631 37.8974 25.86C38.1438 26.0912 38.2688 26.431 38.2688 26.8699V32.306C38.2688 32.8452 38.7062 33.2824 39.2454 33.2824C39.7847 33.2824 40.222 32.8452 40.222 32.306V28.7187C40.222 27.4619 41.2198 27.3982 41.4199 27.3982C41.7359 27.3982 42.0376 27.5112 42.2476 27.7081C42.4942 27.9396 42.6193 28.2796 42.6193 28.7187V32.3059C42.6193 32.8451 43.0566 33.2823 43.5959 33.2823C44.1352 33.2823 44.5725 32.8451 44.5725 32.3059V30.5648C44.5725 29.309 45.5721 29.2454 45.7725 29.2454C46.0889 29.2454 46.3909 29.3583 46.6008 29.5552C46.8474 29.7863 46.9725 30.1261 46.9725 30.5648V36.5297H46.9724Z" fill="#253238"/>
<path d="M19.6992 13.8886C19.6992 14.4278 20.1364 14.865 20.6758 14.865H28.4914C29.0307 14.865 29.468 14.4278 29.468 13.8886C29.468 13.3493 29.0307 12.9121 28.4914 12.9121H20.6758C20.1364 12.9121 19.6992 13.3493 19.6992 13.8886Z" fill="#07B52D"/>
<path d="M26.8323 18.5112H20.6758C20.1364 18.5112 19.6992 18.9484 19.6992 19.4877C19.6992 20.0269 20.1364 20.4642 20.6758 20.4642H26.8323C27.3716 20.4642 27.8089 20.0269 27.8089 19.4877C27.8089 18.9484 27.3716 18.5112 26.8323 18.5112Z" fill="#07B52D"/>
<path d="M10.9512 26.0667H25.8668C26.4061 26.0667 26.8434 25.6295 26.8434 25.0902C26.8434 24.551 26.4061 24.1138 25.8668 24.1138H10.9512C10.4118 24.1138 9.97461 24.551 9.97461 25.0902C9.97461 25.6295 10.4118 26.0667 10.9512 26.0667Z" fill="#253238"/>
<path d="M10.9512 31.6658H18.9972C19.5365 31.6658 19.9737 31.2286 19.9737 30.6894C19.9737 30.1501 19.5365 29.7129 18.9972 29.7129H10.9512C10.4118 29.7129 9.97461 30.1501 9.97461 30.6894C9.97461 31.2286 10.4118 31.6658 10.9512 31.6658Z" fill="#07B52D"/>
<path d="M10.9512 37.2679H18.0372C18.5766 37.2679 19.0138 36.8307 19.0138 36.2914C19.0138 35.7521 18.5766 35.3149 18.0372 35.3149H10.9512C10.4118 35.3149 9.97461 35.7521 9.97461 36.2914C9.97461 36.8307 10.4118 37.2679 10.9512 37.2679Z" fill="#07B52D"/>
<path d="M21.3472 40.9146H10.9512C10.4118 40.9146 9.97461 41.3518 9.97461 41.891C9.97461 42.4303 10.4118 42.8675 10.9512 42.8675H21.3472C21.8865 42.8675 22.3237 42.4303 22.3237 41.891C22.3237 41.3518 21.8865 40.9146 21.3472 40.9146Z" fill="#253238"/>
<path d="M19.5385 9.42022H19.544C20.0834 9.42022 20.5179 8.98301 20.5179 8.44375C20.5179 7.90449 20.0779 7.46729 19.5386 7.46729C18.9992 7.46729 18.562 7.90449 18.562 8.44375C18.562 8.98301 18.9991 9.42022 19.5385 9.42022Z" fill="#253238"/>
</g>
<defs>
<clipPath id="clip0">
<rect width="50" height="50" fill="white"/>
</clipPath>
</defs>
</svg>
