<svg width="50" height="50" viewBox="0 0 50 50" fill="none" xmlns="http://www.w3.org/2000/svg">
<path d="M7.01738 39.855L11.7188 42.2052V47.4609C11.7188 48.0003 12.1561 48.4375 12.6953 48.4375H23.0469C23.5861 48.4375 24.0234 48.0003 24.0234 47.4609V34.7119C24.0234 31.72 21.779 29.2388 18.8095 28.9411C18.7979 28.9379 14.6786 28.2947 12.7675 26.3836L10.5743 24.1914C9.83643 23.4534 8.85557 23.0469 7.8125 23.0469V15.2344C7.8125 13.0805 6.06016 11.3281 3.90625 11.3281C1.75234 11.3281 0 13.0805 0 15.2344V28.5C0 30.8592 0.655664 33.1671 1.896 35.174C3.13623 37.181 4.90723 38.7996 7.01738 39.855V39.855ZM1.95312 15.2344C1.95312 14.1574 2.8293 13.2812 3.90625 13.2812C4.9832 13.2812 5.85938 14.1574 5.85938 15.2344V23.5704C4.66836 24.2591 3.90625 25.5431 3.90625 26.9531C3.90625 27.9961 4.3127 28.9769 5.05068 29.7148L10.0517 34.7168C10.4328 35.0981 11.0513 35.0983 11.4327 34.7169C11.8141 34.3355 11.8142 33.7173 11.4328 33.3358L6.43184 28.3338C6.0627 27.9647 5.85938 27.4744 5.85938 26.9531C5.85938 26.1266 6.38252 25.3863 7.16133 25.1112C7.16162 25.1111 7.16191 25.1109 7.16221 25.1108H7.1623C7.83574 24.8722 8.63467 25.0138 9.19346 25.5726L11.3866 27.7648C13.6509 30.029 18.5979 30.8811 18.6077 30.8838C20.5817 31.0816 22.0703 32.7274 22.0703 34.7119V46.4844H13.6719V41.6016C13.6719 41.2316 13.4628 40.8935 13.132 40.7281L7.89092 38.108C4.22842 36.2764 1.95312 32.5948 1.95312 28.5V15.2344Z" fill="#253238"/>
<path d="M24.0234 24.0235C24.0234 24.5629 24.4607 25.0001 25 25.0001C25.5393 25.0001 25.9766 24.5629 25.9766 24.0235V21.0938H29.7148C35.1923 21.0938 39.6484 16.6377 39.6484 11.1603V6.44541C39.6484 6.05048 39.4104 5.69433 39.0456 5.54316C38.6807 5.39199 38.2606 5.47558 37.9813 5.75488C36.9063 6.82998 35.4771 7.42197 33.957 7.42197C30.6909 7.42197 27.7882 9.00664 25.9766 11.4473V2.53916C25.9766 1.9998 25.5393 1.56259 25 1.56259C24.4607 1.56259 24.0234 1.9998 24.0234 2.53916V7.54111C22.2118 5.10048 19.3091 3.51572 16.043 3.51572C14.5229 3.51572 13.0937 2.92373 12.0187 1.84863C11.7395 1.56933 11.3193 1.48564 10.9544 1.63691C10.5896 1.78818 10.3516 2.14423 10.3516 2.53916V7.254C10.3516 12.7314 14.8077 17.1876 20.2852 17.1876H24.0234V24.0235ZM33.957 9.37509C35.2876 9.37509 36.5664 9.0374 37.6953 8.40254V11.1603C37.6953 15.5607 34.1153 19.1407 29.7148 19.1407H27.9297L33.3984 15.0392C33.8299 14.7156 33.9173 14.1034 33.5938 13.672C33.2702 13.2405 32.6581 13.1529 32.2266 13.4767L25.9766 18.1642V17.3556C25.9766 12.9552 29.5565 9.37509 33.957 9.37509ZM12.3047 7.254V4.49629C13.4337 5.13115 14.7124 5.46884 16.043 5.46884C20.4435 5.46884 24.0234 9.04892 24.0234 13.4493V14.2579L17.7734 9.57041C17.342 9.24687 16.7299 9.33427 16.4062 9.76572C16.0827 10.1972 16.1701 10.8094 16.6016 11.1329L22.0703 15.2345H20.2852C15.8847 15.2345 12.3047 11.6545 12.3047 7.254Z" fill="#07B52D"/>
<path d="M44.8242 38.4766C45.3636 38.4766 45.8008 38.0393 45.8008 37.5C45.8008 36.9607 45.3636 36.5234 44.8242 36.5234C44.2849 36.5234 43.8477 36.9607 43.8477 37.5C43.8477 38.0393 44.2849 38.4766 44.8242 38.4766Z" fill="#253238"/>
<path d="M46.0938 11.3281C43.9398 11.3281 42.1875 13.0805 42.1875 15.2344V23.0469C41.1444 23.0469 40.1636 23.4533 39.4259 24.1911L37.2323 26.3837C35.3635 28.2527 31.2074 28.9376 31.1976 28.9404C28.221 29.2389 25.9766 31.72 25.9766 34.712V47.4609C25.9766 48.0003 26.4139 48.4375 26.9531 48.4375H37.3047C37.8439 48.4375 38.2812 48.0003 38.2812 47.4609V42.2052L41.4775 40.6073C41.9599 40.3661 42.1555 39.7796 41.9144 39.2971C41.6732 38.8147 41.0869 38.6191 40.6042 38.8603L36.868 40.7279C36.5372 40.8936 36.3281 41.2316 36.3281 41.6016V46.4844H27.9297V34.7119C27.9297 32.7274 29.4183 31.0816 31.3993 30.883C31.4092 30.8803 36.2261 30.1521 38.6132 27.7648L40.8067 25.5723C41.3657 25.0133 42.1654 24.8725 42.8377 25.1107H42.8378C42.8381 25.1108 42.8384 25.111 42.8387 25.1111C43.6175 25.3864 44.1406 26.1267 44.1406 26.9531C44.1406 27.4744 43.9373 27.9647 43.5683 28.334L38.5673 33.3359C38.1859 33.7174 38.186 34.3356 38.5674 34.717C38.9486 35.0982 39.5671 35.0983 39.9484 34.7169L44.9494 29.7149C45.6873 28.977 46.0938 27.9961 46.0938 26.9531C46.0938 25.5431 45.3316 24.2591 44.1406 23.5704V15.2344C44.1406 14.1574 45.0168 13.2812 46.0938 13.2812C47.1707 13.2812 48.0469 14.1574 48.0469 15.2344V28.5C48.0469 30.2867 47.596 32.0605 46.7429 33.6297C46.4852 34.1035 46.6604 34.6965 47.1344 34.9541C47.6081 35.2116 48.2013 35.0364 48.4588 34.5626C49.4671 32.7081 50 30.6117 50 28.5V15.2344C50 13.0805 48.2477 11.3281 46.0938 11.3281V11.3281Z" fill="#253238"/>
</svg>
