<svg width="50" height="50" viewBox="0 0 50 50" fill="none" xmlns="http://www.w3.org/2000/svg">
<path d="M41.3236 20.1743H41.1589V16.1488C41.1589 11.8514 39.4733 7.80039 36.4128 4.74209C33.3525 1.68408 29.2989 0 24.9986 0C20.6996 0 16.6469 1.68418 13.5869 4.74229C10.5266 7.80059 8.84121 11.8516 8.84121 16.1489V20.1744H8.67646C6.88076 20.1744 5.41992 21.6345 5.41992 23.4292V46.7426C5.42002 48.5387 6.88086 50 8.67656 50H15.724C16.2633 50 16.7006 49.5627 16.7006 49.0234C16.7006 48.4842 16.2633 48.0469 15.724 48.0469H8.67656C7.95791 48.0469 7.37314 47.4617 7.37314 46.7425V41.7759H12.07C12.6093 41.7759 13.0466 41.3386 13.0466 40.7993C13.0466 40.2601 12.6093 39.8228 12.07 39.8228H7.37314V36.0624H12.07C12.6093 36.0624 13.0466 35.6251 13.0466 35.0858C13.0466 34.5466 12.6093 34.1093 12.07 34.1093H7.37314V30.3517H12.07C12.6093 30.3517 13.0466 29.9144 13.0466 29.3751C13.0466 28.8358 12.6093 28.3985 12.07 28.3985H7.37314V23.4291C7.37314 22.7113 7.95781 22.1274 8.67656 22.1274H41.3237C42.0424 22.1274 42.6272 22.7113 42.6272 23.4291V28.3985H37.9275C37.3883 28.3985 36.951 28.8358 36.951 29.3751C36.951 29.9144 37.3883 30.3517 37.9275 30.3517H42.6271V34.1093H37.9274C37.3882 34.1093 36.9509 34.5466 36.9509 35.0858C36.9509 35.6251 37.3882 36.0624 37.9274 36.0624H42.6271V39.8228H37.9274C37.3882 39.8228 36.9509 40.2601 36.9509 40.7993C36.9509 41.3386 37.3882 41.7759 37.9274 41.7759H42.6271V46.7425C42.6271 47.4617 42.0424 48.0469 41.3236 48.0469H24.5028C23.9636 48.0469 23.5263 48.4842 23.5263 49.0234C23.5263 49.5627 23.9636 50 24.5028 50H41.3236C43.1193 50 44.5802 48.5387 44.5802 46.7425V23.4291C44.5802 21.6344 43.1193 20.1743 41.3236 20.1743ZM10.7943 16.1488C10.7943 8.32129 17.1664 1.95312 24.9986 1.95312C32.8325 1.95312 39.2058 8.32129 39.2058 16.1488V20.1743H34.7098V16.1488C34.7098 13.5717 33.6953 11.1387 31.8534 9.29814C30.0117 7.45781 27.5772 6.44424 24.9986 6.44424C22.4212 6.44424 19.9876 7.45781 18.1463 9.29824C16.3046 11.1391 15.2903 13.572 15.2903 16.1488V20.1743H10.7943V16.1488ZM32.7567 20.1743H17.2435V16.1488C17.2435 11.8746 20.7225 8.39736 24.9986 8.39736C29.2765 8.39736 32.7566 11.8746 32.7566 16.1488V20.1743H32.7567Z" fill="#253238"/>
<path d="M26.482 45.5523C29.1295 43.9743 33.1985 39.4355 34.174 36.3848C34.3306 35.889 34.3269 35.5787 34.3231 35.25C34.3224 35.197 34.3183 29.7025 34.3182 29.6003C34.3176 28.6577 34.1133 28.3193 33.2777 27.8763C33.1878 27.8287 25.4023 24.2673 25.4023 24.2673C25.1458 24.1508 24.851 24.1507 24.5944 24.2674C24.5944 24.2674 16.8118 27.8289 16.7218 27.8765C15.8874 28.3187 15.6828 28.6567 15.6798 29.5987C15.6795 29.7006 15.6753 29.9818 15.6753 29.9897C15.6753 29.9897 15.6746 35.1954 15.674 35.2477C15.6702 35.5787 15.6667 35.8913 15.8268 36.3881C16.8012 39.4356 20.8702 43.9744 23.5166 45.5517C24.015 45.8498 24.4997 45.9946 24.9984 45.9946C25.4921 45.9945 25.9916 45.8455 26.482 45.5523ZM17.6865 35.791C17.6233 35.5949 17.6238 35.5389 17.6269 35.27C17.6277 35.2108 17.6325 29.7156 17.6329 29.6049C17.6329 29.6046 17.6329 29.6043 17.6329 29.6041C17.6341 29.6034 17.6352 29.6028 17.6364 29.6021C17.7278 29.5538 24.9986 26.2291 24.9986 26.2291C24.9986 26.2291 32.2718 29.5536 32.363 29.6019C32.3637 29.6023 32.3645 29.6027 32.3651 29.6031C32.3652 29.7139 32.3694 35.2126 32.3701 35.2728C32.3731 35.5364 32.3739 35.599 32.3125 35.7933C31.4966 38.345 27.7729 42.5091 25.4808 43.8752C25.2939 43.9871 25.1361 44.0414 24.9985 44.0414C24.8628 44.0414 24.7059 43.987 24.5178 43.8746C22.2268 42.5091 18.5031 38.345 17.6865 35.791Z" fill="#07B52D"/>
<path d="M20.1118 48.0469C19.5726 48.0469 19.1353 48.4842 19.1353 49.0234C19.1353 49.5627 19.5726 50 20.1118 50H20.1174C20.6566 50 21.0912 49.5627 21.0912 49.0234C21.0912 48.4842 20.6512 48.0469 20.1118 48.0469Z" fill="#07B52D"/>
<path d="M29.3536 31.5909C28.9675 31.2143 28.3491 31.2222 27.9727 31.6083L23.8162 35.8707L22.4711 34.532C22.0889 34.1516 21.4706 34.1528 21.0901 34.5353C20.7096 34.9176 20.711 35.5359 21.0934 35.9164L23.1378 37.9511C23.3208 38.1333 23.5685 38.2355 23.8267 38.2355H23.834C24.0947 38.2334 24.3439 38.1273 24.5258 37.9406L29.3709 32.9718C29.7476 32.5857 29.7398 31.9675 29.3536 31.5909Z" fill="#253238"/>
</svg>
