<svg width="50" height="50" viewBox="0 0 50 50" fill="none" xmlns="http://www.w3.org/2000/svg">
<path d="M17.8832 38.8296H9.37256C8.93193 38.8296 8.57471 39.1868 8.57471 39.6274C8.57471 40.0681 8.93193 40.4253 9.37256 40.4253H17.8832C18.3238 40.4253 18.6811 40.0681 18.6811 39.6274C18.6811 39.1868 18.3238 38.8296 17.8832 38.8296Z" fill="#07B52D"/>
<path d="M17.8832 35.6382H9.37256C8.93193 35.6382 8.57471 35.9954 8.57471 36.436C8.57471 36.8767 8.93193 37.2339 9.37256 37.2339H17.8832C18.3238 37.2339 18.6811 36.8767 18.6811 36.436C18.6811 35.9954 18.3238 35.6382 17.8832 35.6382Z" fill="#07B52D"/>
<path d="M17.8832 32.4468H9.37256C8.93193 32.4468 8.57471 32.804 8.57471 33.2446C8.57471 33.6853 8.93193 34.0425 9.37256 34.0425H17.8832C18.3238 34.0425 18.6811 33.6853 18.6811 33.2446C18.6811 32.804 18.3238 32.4468 17.8832 32.4468Z" fill="#07B52D"/>
<path d="M18.2243 15.663C18.187 15.6452 18.1482 15.63 18.1079 15.6181C17.7735 15.4893 17.4325 15.374 17.085 15.2739V12.3937C17.085 11.953 16.7277 11.5958 16.2871 11.5958H16.0212V2.39365C16.0211 1.07373 14.9474 0 13.6274 0C12.3075 0 11.2338 1.07373 11.2338 2.39365V11.5958H10.9679C10.5272 11.5958 10.17 11.953 10.17 12.3937V15.2739C9.82256 15.374 9.48154 15.4893 9.14707 15.6181C9.10674 15.6299 9.06807 15.6452 9.03066 15.663C4.40605 17.4982 1.12744 22.017 1.12744 27.2872V47.0744C1.12744 48.6876 2.43975 49.9999 4.05293 49.9999C5.66611 49.9999 6.97842 48.6876 6.97842 47.0744V41.7553C6.97842 40.1421 5.66611 38.8298 4.05293 38.8298C3.57422 38.8298 3.12236 38.9461 2.72314 39.1509V27.2872C2.72314 23.0971 5.09912 19.4521 8.57422 17.6269V19.8403C8.57422 21.4535 9.88652 22.7658 11.4997 22.7658H15.755C17.3682 22.7658 18.6805 21.4535 18.6805 19.8403V17.627C22.1556 19.4521 24.5315 23.0972 24.5315 27.2873V39.1509C24.1323 38.9462 23.6805 38.8298 23.2018 38.8298C21.5886 38.8298 20.2763 40.1421 20.2763 41.7553V45.2127H9.37217C8.93154 45.2127 8.57432 45.5699 8.57432 46.0105C8.57432 46.4512 8.93154 46.8084 9.37217 46.8084H20.2765V47.0743C20.2765 48.6875 21.5888 49.9998 23.202 49.9998C24.8151 49.9998 26.1274 48.6875 26.1274 47.0743V27.2872C26.1274 22.017 22.8488 17.4982 18.2243 15.663ZM4.05303 40.4255C4.78633 40.4255 5.38281 41.022 5.38281 41.7553V47.0744C5.38281 47.8077 4.78633 48.4042 4.05303 48.4042C3.31973 48.4042 2.72324 47.8077 2.72324 47.0744V41.7553C2.72324 41.022 3.31982 40.4255 4.05303 40.4255ZM12.8296 2.39365C12.8296 1.95361 13.1875 1.5958 13.6274 1.5958C14.0674 1.5958 14.4253 1.95371 14.4253 2.39365V11.5958H12.8296V2.39365ZM11.7657 13.1915H15.4892V14.926C14.8816 14.8348 14.2601 14.7872 13.6274 14.7872C12.9948 14.7872 12.3733 14.8349 11.7657 14.926V13.1915ZM17.0849 19.8404C17.0849 20.5737 16.4884 21.1702 15.7551 21.1702H11.4998C10.7665 21.1702 10.17 20.5737 10.17 19.8404V16.9451C11.2569 16.5808 12.4195 16.383 13.6274 16.383C14.8354 16.383 15.9979 16.5808 17.0849 16.9451V19.8404ZM24.5317 47.0745C24.5317 47.8078 23.9353 48.4043 23.202 48.4043C22.4687 48.4043 21.8722 47.8078 21.8722 47.0745V41.7554C21.8722 41.0221 22.4687 40.4256 23.202 40.4256C23.9353 40.4256 24.5317 41.0221 24.5317 41.7554V47.0745Z" fill="#253238"/>
<path d="M48.0743 45.2128H44.8663C44.5129 43.4785 43.0306 42.1508 41.2232 42.0312V15.5851C41.2232 15.2378 41.001 14.9433 40.6913 14.8336V9.68086C40.6913 4.34277 36.3485 0 31.0104 0C25.6724 0 21.3296 4.34277 21.3296 9.68086V15.0646C21.3296 15.5052 21.6868 15.8624 22.1274 15.8624C22.5681 15.8624 22.9253 15.5052 22.9253 15.0646V9.68086C22.9253 5.22266 26.5522 1.5958 31.0104 1.5958C35.4687 1.5958 39.0956 5.22275 39.0956 9.68086V14.7872H37.4998V9.68086C37.4998 6.10254 34.5888 3.1915 31.0104 3.1915C27.4321 3.1915 24.5211 6.10254 24.5211 9.68086V18.0708C24.5211 18.5114 24.8783 18.8687 25.3189 18.8687C25.7596 18.8687 26.1168 18.5114 26.1168 18.0708V9.68086C26.1168 6.98252 28.3121 4.78721 31.0104 4.78721C33.7088 4.78721 35.9041 6.98252 35.9041 9.68086V14.8336C35.5944 14.9433 35.3722 15.2379 35.3722 15.5851V42.0312C33.5648 42.1509 32.0825 43.4785 31.7291 45.2128H28.5211C28.0805 45.2128 27.7232 45.57 27.7232 46.0106V49.2021C27.7232 49.6428 28.0805 50 28.5211 50H48.0743C48.5149 50 48.8722 49.6428 48.8722 49.2021V46.0106C48.8722 45.57 48.5149 45.2128 48.0743 45.2128ZM36.9679 16.383H39.6274V42.0213H36.9679V16.383ZM35.6381 43.617H40.9572C41.9975 43.617 42.8843 44.2841 43.2136 45.2127H33.3817C33.711 44.2842 34.5979 43.617 35.6381 43.617ZM47.2764 48.4043H29.3189V46.8086H47.2764V48.4043Z" fill="#253238"/>
</svg>
