<svg width="50" height="50" viewBox="0 0 50 50" fill="none" xmlns="http://www.w3.org/2000/svg">
<path d="M49.9198 17.4464C49.9134 17.4768 47.0406 28.0397 46.7885 28.9663L46.771 29.031C46.3212 31.1186 44.8037 32.2594 44.1706 32.6537M49.9198 17.4464L27.1137 47.0717L26.8644 47.053C26.8644 47.0531 26.8644 47.0531 26.8644 47.0531C26.8573 47.1483 26.8891 47.2399 26.9546 47.3102M49.9198 17.4464C50.1499 16.3576 49.9954 14.3657 47.9584 13.8073L49.9198 17.4464ZM44.1706 32.6537L44.0386 32.4413C44.6486 32.0613 46.0979 30.9684 46.5266 28.9784L46.5294 28.9654L46.5297 28.9654C46.5339 28.9499 47.3195 26.0615 48.1048 23.1733C48.4975 21.7292 48.8901 20.2851 49.1849 19.2C49.3659 18.5341 49.5082 18.0098 49.5919 17.7016C49.6457 17.5033 49.6752 17.3946 49.6751 17.3952L49.6752 17.3947C49.7831 16.8841 49.7989 16.1643 49.5552 15.5159C49.3163 14.8801 48.8268 14.3048 47.8932 14.0486C47.8929 14.0485 47.8926 14.0485 47.8923 14.0484L47.8771 14.0445C47.8769 14.0444 47.8767 14.0444 47.8764 14.0443C47.0979 13.8575 46.4003 14.0041 45.8402 14.4217L45.6709 14.548L45.5181 14.4021C43.8798 12.8379 41.1116 14.1032 41.2777 16.4082L41.6997 22.262L41.6997 22.262C41.7153 22.479 41.7593 22.691 41.8299 22.8959L41.8608 22.9857L41.8243 23.0734L41.7313 23.2967L41.6197 23.5646L41.3713 23.4145C40.7524 23.0407 39.8993 22.889 38.9309 23.4297L38.9308 23.4297C38.1956 23.8399 37.5613 24.1911 37.0105 24.496C35.8229 25.1535 35.0242 25.5957 34.4419 25.9499C33.6012 26.4612 33.2341 26.7758 32.8116 27.2795C32.8115 27.2795 32.8115 27.2796 32.8115 27.2796L32.8056 27.2868C31.6174 28.7602 30.9061 29.6552 30.4188 30.4428C29.9379 31.2202 29.6742 31.8951 29.3954 32.9301C28.987 34.4462 28.6984 36.0314 28.5352 37.6516L28.5108 37.8936L28.2683 37.8759L27.872 37.847C27.1536 37.7959 26.5368 38.332 26.4847 39.0447L26.4847 39.0447L25.903 46.9829C25.9029 46.9829 25.9029 46.9829 25.9029 46.9829C25.8478 47.7382 26.4473 48.3832 27.2046 48.3832H37.9398C38.6251 48.3832 39.2025 47.8466 39.2526 47.1631L39.4 45.1498L39.4 45.1498C39.4195 44.8842 39.22 44.6532 38.9544 44.6338C38.6878 44.6149 38.4576 44.8144 38.4383 45.0794L38.4383 45.0795L38.2909 47.0928L38.2909 47.0929C38.2773 47.2768 38.1236 47.4191 37.9397 47.4191H27.2043C27.1084 47.4191 27.0197 47.3803 26.9546 47.3102M44.1706 32.6537C44.1605 32.6599 44.1504 32.6659 44.1402 32.6716C43.4157 33.076 42.8114 33.4094 42.3031 33.6898C39.8449 35.0461 39.6338 35.1626 38.9372 36.0759L44.0384 32.4415L44.1706 32.6537ZM26.9546 47.3102L27.1376 47.1402L26.9555 47.3112C26.9552 47.3108 26.9549 47.3105 26.9546 47.3102ZM38.814 39.9485C38.814 39.9484 38.814 39.9483 38.814 39.9482L38.814 39.9485ZM44.9811 15.4766L45.0587 15.3249L44.9459 15.1972C43.9667 14.0886 42.1335 14.8672 42.2395 16.339L42.2395 16.339L42.5163 20.1784L42.9965 20.2565C44.8335 15.8417 44.8706 15.6959 44.9359 15.5642C44.9471 15.5417 44.9591 15.5196 44.9811 15.4766ZM48.7324 17.1907L48.7346 17.1826L48.7363 17.1742C48.769 17.0108 48.8375 16.575 48.735 16.1264C48.629 15.6628 48.3347 15.1746 47.6506 14.9819L47.6506 14.9816L47.6397 14.9791C47.1127 14.8559 46.6738 14.9684 46.3309 15.2575C46.0027 15.5341 45.7844 15.9538 45.6361 16.4114C45.632 16.4215 45.6234 16.4426 45.6062 16.4844C45.5643 16.5863 45.4729 16.8077 45.2748 17.2855C44.8786 18.2409 44.0563 20.2203 42.3517 24.3166L42.3107 24.4153L42.3537 24.5132C42.6639 25.2192 42.6902 26.2435 41.7162 26.9817L41.7162 26.9817C40.5339 27.8781 37.7255 30.0239 37.6974 30.0454L37.6974 30.0454C37.4861 30.2071 37.1834 30.1669 37.0216 29.9551L37.0216 29.955C36.8598 29.7435 36.9003 29.441 37.1119 29.2793L37.1124 29.2789L37.1124 29.2789L37.1126 29.2787L37.1132 29.2782L37.1153 29.2766L37.1226 29.2711L37.1487 29.2511L37.2442 29.1781L37.5857 28.9172C37.8716 28.6989 38.2625 28.4004 38.6895 28.0746C39.5436 27.4228 40.5419 26.6618 41.1337 26.2133L41.1337 26.2133C41.4626 25.9639 41.5918 25.6669 41.5892 25.3758C41.5867 25.1022 41.4681 24.869 41.3739 24.7241L41.374 24.724L41.3724 24.7218L41.367 24.7129L41.3671 24.7128L41.3615 24.7047C41.3599 24.7025 41.3584 24.7005 41.3571 24.6987C41.2735 24.5732 41.0731 24.3156 40.7473 24.1623C40.3996 23.9987 39.9421 23.9699 39.401 24.2719C38.6251 24.7049 37.9645 25.0707 37.3991 25.3838C36.331 25.9753 35.6029 26.3785 35.0798 26.6908C34.2708 27.1735 33.9247 27.4544 33.5551 27.8941L33.5551 27.8941L33.5519 27.898C32.3698 29.3639 31.683 30.2323 31.2344 30.9574C30.7782 31.6947 30.5685 32.283 30.3266 33.1811C29.9348 34.6356 29.6569 36.1552 29.4985 37.7086L29.4724 37.9645L29.7289 37.9833L36.7482 38.4976L36.9974 38.5158L37.0158 38.2666C37.0188 38.2253 37.0217 38.1827 37.0247 38.1388C37.0725 37.4444 37.1426 36.4271 37.972 35.3396C38.4818 34.6711 38.8123 34.3366 39.5326 33.8755C40.0423 33.5494 40.7374 33.166 41.8139 32.5724C42.3023 32.303 42.8692 31.9904 43.5329 31.6202L43.533 31.6205L43.5441 31.6135C44.1653 31.2232 45.2544 30.3356 45.5875 28.7593L45.5876 28.7587C45.5886 28.7541 45.5899 28.7485 45.5921 28.7396L45.5936 28.7335L45.5943 28.731L48.7324 17.1907ZM45.6306 16.4301C45.6319 16.4251 45.6333 16.4207 45.6343 16.4176L45.8675 16.5059C45.8595 16.5258 45.839 16.576 45.7882 16.6988C45.7161 16.6609 45.6512 16.6033 45.6315 16.5595C45.6252 16.5299 45.6227 16.4847 45.6236 16.4698C45.6256 16.4485 45.6301 16.432 45.6306 16.4301ZM36.823 30.1069C37.0687 30.4284 37.5283 30.4895 37.8492 30.244L36.9601 29.0806C36.6388 29.3261 36.5773 29.7856 36.823 30.1069ZM41.3756 24.727L41.3754 24.7266L41.3756 24.727Z" fill="#253238" stroke="#253238" stroke-width="0.5"/>
<path d="M26.8411 18.1048L27.2926 17.6739L34.0603 11.2153L34.0603 11.2153C34.2529 11.0316 34.2601 10.7264 34.0762 10.5336L26.8411 18.1048ZM26.8411 18.1048H27.4652M26.8411 18.1048H27.4652M27.4652 18.1048H29.3172C33.1922 18.1048 36.3445 14.9526 36.3445 11.0776V8.68317V8.43317H36.0945H33.1467C29.2718 8.43317 26.1197 11.5853 26.1197 15.4602V16.8762V17.4603M27.4652 18.1048L26.1197 17.4603M26.1197 17.4603L26.5423 17.057M26.1197 17.4603L26.5423 17.057M26.5423 17.057L33.3945 10.5177M26.5423 17.057L33.3945 10.5177M33.3945 10.5177C33.5873 10.3338 33.8925 10.3411 34.0762 10.5336L33.3945 10.5177ZM25.8591 11.2362L25.9892 11.8531L26.3172 11.3147C27.7216 9.00995 30.2579 7.46901 33.1467 7.46901H36.2143C36.8176 7.46901 37.3088 7.96012 37.3088 8.56344V11.0777C37.3088 15.484 33.7235 19.0692 29.3171 19.0692H29.3118H29.3064H29.3008H29.2951H29.2893H29.2833H29.2773H29.2711H29.2647H29.2583H29.2517H29.2451H29.2382H29.2313H29.2243H29.2171H29.2098H29.2024H29.1949H29.1872H29.1795H29.1716H29.1636H29.1555H29.1472H29.1389H29.1304H29.1219H29.1132H29.1044H29.0955H29.0864H29.0773H29.0681H29.0587H29.0492H29.0397H29.03H29.0202H29.0103H29.0003H28.9902H28.9799H28.9696H28.9592H28.9486H28.938H28.9272H28.9164H28.9054H28.8944H28.8832H28.8719H28.8606H28.8491H28.8375H28.8259H28.8141H28.8022H28.7903H28.7782H28.7661H28.7538H28.7415H28.729H28.7165H28.7039H28.6911H28.6783H28.6654H28.6524H28.6393H28.6261H28.6128H28.5994H28.586H28.5724H28.5588H28.5451H28.5312H28.5173H28.5033H28.4893H28.4751H28.4608H28.4465H28.4321H28.4176H28.403H28.3883H28.3736H28.3587H28.3438H28.3288H28.3137H28.2986H28.2833H28.268H28.2526H28.2371H28.2216H28.2059H28.1902H28.1745H28.1586H28.1427H28.1266H28.1106H28.0944H28.0782H28.0619H28.0455H28.029H28.0125H27.9959H27.9793H27.9626H27.9458H27.9289H27.9119H27.8949H27.8779H27.8607H27.8435H27.8263H27.8089H27.7915H27.7741H27.7565H27.739H27.7213H27.7036H27.6858H27.668H27.6501H27.6321H27.6141H27.596H27.5779H27.5597H27.5414H27.5231H27.5048H27.4863H27.4679H27.4493H27.4307H27.4121H27.3934H27.3746H27.3558H27.337H27.3181H27.2991H27.2801H27.2611H27.2419H27.2228H27.2036H27.1843H27.165H27.1457H27.1263H27.1068H27.0874H27.0678H27.0482H27.0286H27.009H26.9892H26.9695H26.9497H26.9299H26.91H26.8901H26.8701H26.8501H26.8301H26.81H26.7899H26.7697H26.7495H26.7293H26.709H26.6887H26.6684H26.648H26.6276H26.6072H26.5867H26.5662H26.5457H26.5251H26.5045H26.4839H26.4632H26.4426H26.4218H26.4011H26.3803H26.3595H26.3387H26.3178H26.2969H26.276H26.2551H26.2341H26.2132H26.1921H26.1711H26.1501H26.129H26.1079H26.0868H26.0656H26.0445H26.0233H26.0021H25.9809H25.9596H25.9384H25.9171H25.8958H25.8745H25.8532H25.8319H25.8105H25.7891H25.7678H25.7464H25.725H25.7036H25.6821H25.6607H25.6392H25.6178H25.5963H25.5748H25.5533H25.5318H25.5103H25.4888H25.4673H25.4458H25.4242H25.4027H25.3812H25.3596H25.3381H25.3165H25.295H25.2734H25.2518H25.2303H25.2087H25.1871H25.1656H25.144H25.1225H25.1009H25.0793H25.0578H25.0362H25.0147H24.9931H24.9716H24.9501H24.9285H24.907H24.8855H24.864H24.8425H24.821H24.7995H24.778H24.7566H24.7351H24.7137H24.6922H24.6708H24.6494H24.628H24.6066H24.5853H24.5639H24.5426H24.5212H24.4999H24.4786H24.4573H24.4361H24.4148H24.3936H24.3724H24.3512H24.3301H24.3089H24.2878H24.2667H24.2456H24.2245H24.2035H24.1825H24.1615H24.1405H24.1196H24.0986H24.0777H24.0569H24.036H24.0152H23.9944H23.9737H23.9529H23.9322H23.9116H23.8909H23.8703H23.8497H23.8292H23.8087H23.7882H23.7677H23.7473H23.7269H23.7066H23.6863H23.666H23.6458H23.6256H23.6054H23.5853H23.5652H23.5451H23.5251H23.5051H23.4852H23.4653H23.4454H23.4256H23.4059H23.3861H23.3665H23.3468H23.3272H23.3077H23.2882H23.2687H23.2493H23.2299H23.2106H23.1913H23.1721H23.1529H23.1338H23.1147H23.0957H23.0767H23.0578H23.0389H23.0201H23.0013H22.9826H22.9639H22.9453H22.9267H22.9082H22.8898H22.8714H22.8531H22.8348H22.8166H22.7984H22.7803H22.7623H22.7443H22.7264H22.7085H22.6907H22.673H22.6553H22.6377H22.6201H22.6026H22.5852H22.5678H22.5505H22.5333H22.5162H22.4991H22.482H22.4651H22.4482H22.4313H22.4146H22.3979H22.3813H22.3647H22.3483H22.3318H22.3155H22.2993H22.2831H22.267H22.2509H22.2349H22.2191H22.2032H22.1875H22.1718H22.1563H22.1407H22.1253H22.11H22.0947H22.0795H22.0644H22.0493H22.0344H22.0195H22.0047H21.99H21.9754H21.9609H21.9464H21.932H21.9178H21.9036H21.8894H21.8754H21.8615H21.8476H21.8338H21.8202H21.8066H21.7931H21.7797H21.7664H21.7531H21.74H21.7269H21.714H21.7011H21.6884H21.6757H21.6631H21.6506H21.6382H21.626H21.6138H21.6017H21.5897H21.5778H21.566H21.5543H21.5426H21.5311H21.5197H21.5084H21.4972H21.4861H21.4751H21.4642H21.4534H21.4428H21.4322H21.4217H21.4113H21.401H21.3909H21.3808H21.3709H21.361H21.3513H21.3417H21.3322H21.3228H21.3135H21.3043H21.2952H21.2863H21.2774H21.2687H21.2601H21.2516H21.2432H21.2349H21.2268H21.2187H21.2108H21.203H21.1953H21.1877H21.1802H21.1729H21.1657H21.1586H21.1516H21.1447H21.138H21.1314H21.1249H21.1185H21.1123H21.1062H21.1002H21.0943H21.0885H21.0829H21.0774H21.0721H21.0668C14.3821 19.0692 8.94336 13.6306 8.94336 6.94576V2.73902C8.94336 2.12025 9.44715 1.61646 10.0659 1.61646H13.9961C19.8223 1.61646 24.7022 5.74848 25.8591 11.2362ZM24.7269 16.9708L25.1553 17.4073V16.7957V16.7889V16.7822V16.7754V16.7687V16.7619V16.7552V16.7485V16.7418V16.7351V16.7284V16.7217V16.715V16.7084V16.7017V16.6951V16.6885V16.6818V16.6752V16.6686V16.662V16.6554V16.6488V16.6423V16.6357V16.6292V16.6226V16.6161V16.6095V16.603V16.5965V16.59V16.5835V16.577V16.5705V16.5641V16.5576V16.5512V16.5447V16.5383V16.5318V16.5254V16.519V16.5126V16.5062V16.4998V16.4934V16.4871V16.4807V16.4743V16.468V16.4616V16.4553V16.449V16.4426V16.4363V16.43V16.4237V16.4174V16.4112V16.4049V16.3986V16.3923V16.3861V16.3798V16.3736V16.3674V16.3611V16.3549V16.3487V16.3425V16.3363V16.3301V16.3239V16.3177V16.3116V16.3054V16.2993V16.2931V16.287V16.2808V16.2747V16.2686V16.2624V16.2563V16.2502V16.2441V16.238V16.2319V16.2259V16.2198V16.2137V16.2077V16.2016V16.1955V16.1895V16.1835V16.1774V16.1714V16.1654V16.1594V16.1534V16.1474V16.1414V16.1354V16.1294V16.1234V16.1174V16.1115V16.1055V16.0995V16.0936V16.0876V16.0817V16.0757V16.0698V16.0639V16.058V16.052V16.0461V16.0402V16.0343V16.0284V16.0225V16.0167V16.0108V16.0049V15.999V15.9932V15.9873V15.9814V15.9756V15.9697V15.9639V15.958V15.9522V15.9464V15.9406V15.9347V15.9289V15.9231V15.9173V15.9115V15.9057V15.8999V15.8941V15.8883V15.8825V15.8768V15.871V15.8652V15.8594V15.8537V15.8479V15.8422V15.8364V15.8307V15.8249V15.8192V15.8134V15.8077V15.802V15.7962V15.7905V15.7848V15.7791V15.7734V15.7677V15.762V15.7562V15.7505V15.7449V15.7392V15.7335V15.7278V15.7221V15.7164V15.7107V15.7051V15.6994V15.6937V15.688V15.6824V15.6767V15.6711V15.6654V15.6598V15.6541V15.6485V15.6428V15.6372V15.6315V15.6259V15.6202V15.6146V15.609V15.6033V15.5977V15.5921V15.5865V15.5809V15.5752V15.5696V15.564V15.5584V15.5528V15.5472V15.5416V15.536V15.5304V15.5248V15.5192V15.5136V15.508V15.5024V15.4968V15.4912V15.4856V15.48V15.4744V15.4688V15.4632V15.4576V15.4521V15.4465V15.4409V15.4353V15.4297V15.4242V15.4186V15.413V15.4074V15.4019V15.3963V15.3907V15.3852V15.3796V15.374V15.3684V15.3629V15.3573V15.3517V15.3462V15.3406V15.3351V15.3295V15.3239V15.3184V15.3128V15.3072V15.3017V15.2961V15.2905V15.285V15.2794V15.2739V15.2683V15.2627V15.2572V15.2516V15.246V15.2405V15.2349V15.2294V15.2238V15.2182V15.2127V15.2071V15.2015V15.196V15.1904V15.1848V15.1793V15.1737V15.1681V15.1626V15.157V15.1514V15.1459V15.1403V15.1347V15.1291V15.1236V15.118V15.1124V15.1068V15.1012V15.0957V15.0901V15.0845V15.0789V15.0733V15.0677V15.0622V15.0566V15.051V15.0454V15.0398V15.0342V15.0286V15.023V15.0174V15.0118V15.0062V15.0006V14.995V14.9894V14.9838V14.9782V14.9725V14.9669V14.9613V14.9557V14.9501V14.9444V14.9388V14.9332V14.9276V14.9219V14.9163V14.9106V14.905V14.8994V14.8937V14.8881V14.8824V14.8768V14.8711V14.8655V14.8598V14.8541V14.8485V14.8428V14.8371V14.8314V14.8258V14.8201V14.8144V14.8087V14.803V14.7973V14.7916V14.7859V14.7802V14.7745V14.7688V14.7631V14.7574V14.7517V14.7459V14.7402V14.7345V14.7288V14.723V14.7173V14.7115V14.7058V14.7V14.6943V14.6885V14.6828V14.677V14.6712V14.6655V14.6597V14.6539V14.6481V14.6423V14.6365V14.6307V14.6249V14.6191V14.6133V14.6075V14.6017V14.5958V14.59V14.5842V14.5783V14.5725V14.5666V14.5608V14.5549V14.5491V14.5432V14.5373V14.5315V14.5256V14.5197V14.5138V14.5079V14.502V14.4961V14.4902V14.4843V14.4784V14.4724V14.4665V14.4606V14.4546V14.4487V14.4427V14.4368V14.4308V14.4248V14.4189V14.4129V14.4069V14.4009V14.3949V14.3889V14.3829V14.3769V14.3709V14.3648V14.3588V14.3528V14.3467V14.3407V14.3346V14.3286V14.3225V14.3164V14.3104V14.3043V14.2982V14.2921V14.286V14.2799V14.2737V14.2676V14.2615V14.2554V14.2492V14.2431V14.2369V14.2307V14.2246V14.2184V14.2122V14.206V14.1998V14.1936V14.1874V14.1812V14.175V14.1687V14.1625V14.1562V14.15V14.1437V14.1375V14.1312V14.1249V14.1186V14.1123V14.106V14.0997V14.0934V14.0871V14.0807V14.0744V14.068V14.0617V14.0553V14.0489V14.0426V14.0362V14.0298V14.0234V14.017V14.0105V14.0041V13.9977V13.9912V13.9848V13.9783V13.9719V13.9654V13.9589V13.9524V13.9459V13.9394V13.9329V13.9263V13.9198V13.9133V13.9067V13.9002V13.8936V13.887V13.8804V13.8738V13.8672V13.8606V13.854V13.8474V13.8407V13.8341V13.8274V13.8207V13.8141V13.8074V13.8007V13.794V13.7873V13.7805V13.7738V13.7671V13.7603V13.7536V13.7468V13.74C25.1553 7.5866 20.1495 2.58081 13.9961 2.58081H10.1578H9.90782V2.83081V6.94567C9.90782 13.0991 14.9136 18.1049 21.067 18.1049H23.893H24.4887L24.0714 17.6798L12.4243 5.81238C12.4243 5.81237 12.4242 5.81236 12.4242 5.81235C12.2377 5.62217 12.2406 5.31698 12.4306 5.13054C12.6206 4.94416 12.9259 4.94692 13.1124 5.13691L24.7269 16.9708Z" fill="#07B52D" stroke="#07B52D" stroke-width="0.5"/>
<path d="M21.5053 37.8938L21.4809 37.6518C21.3178 36.0315 21.0291 34.4463 20.6206 32.9302L20.6206 32.9302C20.3418 31.8952 20.0781 31.2202 19.5971 30.4429C19.1099 29.6553 18.3986 28.7604 17.2106 27.2873C17.2105 27.2872 17.2104 27.287 17.2102 27.2869L17.2075 27.2835L17.2044 27.2798C16.7809 26.7749 16.4124 26.4597 15.5711 25.9482C14.9918 25.5959 14.1989 25.157 13.0234 24.5062C12.4685 24.199 11.8283 23.8446 11.0851 23.4298L11.0851 23.4298C10.1164 22.889 9.26367 23.0408 8.64472 23.4146L8.39627 23.5647L8.28468 23.2967L8.19171 23.0735L8.1552 22.9858L8.18611 22.896C8.19151 22.8803 8.19653 22.8659 8.20122 22.8524C8.23197 22.764 8.2485 22.7165 8.26596 22.6198C8.28769 22.4995 8.30924 22.3083 8.34121 21.9183C8.37897 21.4577 8.43015 20.7351 8.51392 19.5524C8.57134 18.7418 8.64407 17.715 8.73828 16.4082C8.90315 14.12 6.14964 12.8254 4.49786 14.4023L4.3451 14.5482L4.17578 14.4219C3.39347 13.8386 2.27545 13.8254 1.42898 14.339C0.601084 14.8413 0.0170245 15.8621 0.340531 17.3948L0.340622 17.3952C0.340483 17.3946 0.36965 17.502 0.422862 17.698C0.506381 18.0056 0.649137 18.5315 0.830785 19.2C1.12563 20.285 1.51823 21.7292 1.91088 23.1733C2.63559 25.8387 3.36055 28.5042 3.47142 28.9118L3.486 28.9654L3.4895 28.9783L3.48915 28.9784C3.91761 30.9678 5.36615 32.0606 5.97653 32.441C5.97654 32.441 5.97679 32.4411 5.97733 32.4414C5.97821 32.442 5.97987 32.4429 5.98255 32.4445L6.00138 32.4553L6.065 32.4912C6.11766 32.5208 6.18896 32.5605 6.27285 32.6072C6.44058 32.7005 6.65782 32.8209 6.87528 32.9412C7.31005 33.1818 7.74515 33.4219 7.78583 33.4443C7.78584 33.4444 7.78585 33.4444 7.78586 33.4444L7.80745 33.4563C9.04288 34.1378 9.73176 34.5178 10.1951 34.8412C10.6771 35.1777 10.9208 35.4569 11.2772 35.9242C11.939 36.7921 11.9912 37.6079 12.0283 38.1871C12.0316 38.239 12.0348 38.289 12.0383 38.3369L12.0566 38.5862L11.8073 38.6045L11.4374 38.6316C10.725 38.6839 10.1877 39.3063 10.2399 40.0185L10.7632 47.1633L10.5143 47.1815L10.7632 47.1633C10.8133 47.8468 11.3907 48.3834 12.076 48.3834H15.468C15.7343 48.3834 15.9502 48.1676 15.9502 47.9013C15.9502 47.6349 15.7343 47.4191 15.468 47.4191H12.076C11.8921 47.4191 11.7384 47.2768 11.7248 47.093L11.7248 47.0929C11.5906 45.261 11.4882 43.892 11.4116 42.8695C11.3301 41.7814 11.278 41.0855 11.2483 40.6411C11.2201 40.2193 11.2102 40.0027 11.2188 39.8928C11.2211 39.8637 11.2257 39.8254 11.2384 39.7869C11.2513 39.7475 11.2819 39.6802 11.3556 39.6339C11.4259 39.5899 11.4948 39.5919 11.5122 39.5924L11.5127 39.5924C11.5151 39.5925 11.5172 39.5925 11.519 39.5926C13.154 39.4728 14.5416 39.3708 15.7191 39.2843C18.6069 39.072 20.2313 38.9526 21.1437 38.8915C21.7808 38.8489 22.0831 38.8337 22.2258 38.8368C22.2621 38.8376 22.2989 38.8397 22.3324 38.8455C22.3548 38.8493 22.4296 38.8622 22.492 38.9227C22.5735 39.0018 22.5744 39.0968 22.571 39.1371L23.1509 47.0522C23.1509 47.0524 23.1509 47.0526 23.1509 47.0527L23.151 47.0534L21.5053 37.8938ZM21.5053 37.8938L21.7479 37.8761C21.7872 37.8732 21.8263 37.87 21.8651 37.8669C22.2834 37.8329 22.6721 37.8014 23.0861 38.1585C23.3484 38.3851 23.5061 38.699 23.5315 39.0448L24.113 46.9828C24.1684 47.7382 23.5688 48.3832 22.8111 48.3834H18.8845C18.6182 48.3834 18.4024 48.1676 18.4024 47.9013C18.4024 47.6349 18.6182 47.4191 18.8845 47.4191H22.8111C22.9068 47.4191 22.9953 47.3805 23.0603 47.3107L21.5053 37.8938ZM12.3189 30.0456C12.2908 30.0241 9.48252 27.8782 8.30009 26.9818L8.30007 26.9818C7.32612 26.2436 7.35238 25.2193 7.6626 24.5134L7.70563 24.4155L7.66454 24.3168C6.5322 21.5956 5.76742 19.7514 5.24695 18.4963C4.90406 17.6694 4.66719 17.0982 4.50112 16.7005C4.29294 16.2018 4.19313 15.9687 4.13418 15.8449C4.08072 15.7326 4.05081 15.6918 4.02206 15.6526C4.01492 15.6429 4.00785 15.6333 4.00051 15.6227C3.81218 15.3505 3.58517 15.1423 3.30477 15.0274C3.02293 14.9118 2.71248 14.9008 2.37673 14.9791L2.37668 14.9789L2.36577 14.9819C1.68151 15.1746 1.38699 15.6627 1.28099 16.1262C1.17839 16.5749 1.24687 17.0107 1.2796 17.1741L1.28127 17.1824L1.28349 17.1906L4.42168 28.7308L4.42167 28.7308L4.42237 28.7333L4.42408 28.74L4.42412 28.7402L4.42873 28.7603C4.76219 30.3358 5.85083 31.2232 6.47194 31.6133L6.47176 31.6136L6.48313 31.62C7.1462 31.9898 7.71266 32.3022 8.20077 32.5714C9.27804 33.1654 9.9736 33.549 10.4834 33.8753C11.2038 34.3364 11.5342 34.671 12.0441 35.3396C12.8831 36.4398 12.9499 37.4856 12.9904 38.1178C12.9937 38.1704 12.9969 38.22 13.0003 38.2666L13.0186 38.5159L13.2679 38.4976L20.2873 37.9834L20.5438 37.9646L20.5177 37.7087C20.3593 36.1552 20.0815 34.6357 19.6896 33.1813C19.4477 32.2832 19.2379 31.6948 18.7817 30.9574C18.3331 30.2323 17.6464 29.3638 16.4646 27.8982L16.4646 27.8982L16.4613 27.8942C16.0916 27.4545 15.7455 27.1736 14.9365 26.6908C14.4132 26.3785 13.6849 25.9752 12.6164 25.3835C12.0512 25.0705 11.3908 24.7048 10.6152 24.272L10.6152 24.272C10.3665 24.1332 10.1211 24.0494 9.87544 24.0381C9.6262 24.0266 9.39359 24.0906 9.17532 24.2206L9.17518 24.2207C8.8761 24.3991 8.58687 24.7076 8.47544 25.0705C8.41837 25.2563 8.40696 25.4611 8.47272 25.6659C8.53862 25.8711 8.67569 26.0564 8.88263 26.2133C9.47441 26.6619 10.4727 27.4229 11.3268 28.0746C11.7538 28.4005 12.1447 28.699 12.4306 28.9173L12.772 29.1782L12.8676 29.2512L12.8937 29.2712L12.9009 29.2767L12.903 29.2783L12.9037 29.2788L12.9039 29.2789L12.9039 29.279L12.9044 29.2793C13.1159 29.441 13.1564 29.7436 12.9947 29.9552M12.3189 30.0456L12.167 30.2442L12.3189 30.0456C12.3189 30.0456 12.3189 30.0456 12.3189 30.0456ZM12.3189 30.0456C12.4065 30.1126 12.5089 30.1447 12.6108 30.1446H12.611C12.7567 30.1446 12.8998 30.0792 12.9947 29.9552M12.9947 29.9552L13.1904 30.1048L12.9947 29.9551C12.9947 29.9551 12.9947 29.9551 12.9947 29.9552ZM22.0746 39.0794L22.0746 39.0795L22.0746 39.0794ZM22.5694 39.1154C22.5694 39.1155 22.5694 39.1157 22.5695 39.1158L22.5694 39.1154ZM7.77644 16.3389L7.77644 16.3389C7.88216 14.8717 6.05213 14.0857 5.07002 15.1971L4.95715 15.3248L5.03481 15.4765C5.05958 15.5249 5.07112 15.5453 5.08167 15.5662C5.13789 15.6774 5.16615 15.8027 7.01942 20.2563L7.49958 20.1783L7.77644 16.3389Z" fill="#253238" stroke="#253238" stroke-width="0.5"/>
</svg>
