<svg width="50" height="50" viewBox="0 0 50 50" fill="none" xmlns="http://www.w3.org/2000/svg">
<g clip-path="url(#clip0)">
<path d="M25 31.1464C28.99 31.146 32.9813 29.6271 36.0188 26.5897C38.4107 24.199 39.9326 21.1722 40.42 17.8364C40.8979 14.5655 40.3467 11.2947 38.8257 8.37751C38.5763 7.89919 37.9864 7.71384 37.5082 7.96306C37.0299 8.21247 36.8443 8.80222 37.0937 9.28054C39.856 14.5785 38.8691 20.9793 34.6379 25.2084C34.6258 25.2205 34.6134 25.232 34.6013 25.2441C34.0653 22.653 32.4888 20.3627 30.2309 18.9304C31.1807 17.7672 31.7516 16.283 31.7516 14.6676C31.7516 10.9463 28.7229 7.91892 24.9999 7.91892C21.2755 7.91892 18.2455 10.9464 18.2455 14.6676C18.2455 16.283 18.8166 17.7672 19.7669 18.9305C17.5102 20.3631 15.9344 22.6533 15.3985 25.244C15.3863 25.2319 15.3739 25.2203 15.3618 25.2082C12.7868 22.6345 11.3687 19.2132 11.3687 15.5742C11.3687 11.9353 12.7868 8.51394 15.3618 5.94031C19.5956 1.70847 26.0021 0.724193 31.3037 3.49099C31.7817 3.7405 32.3718 3.55525 32.6213 3.07702C32.8708 2.5988 32.6855 2.00886 32.2073 1.75935C29.331 0.258275 25.9692 -0.309303 22.7414 0.160619C19.4024 0.647142 16.3731 2.16794 13.9811 4.55876C11.0369 7.50144 9.41553 11.4134 9.41553 15.5742C9.41553 19.735 11.0369 23.647 13.981 26.5895C17.0192 29.6277 21.0091 31.1468 25 31.1464ZM25 9.87214C27.6458 9.87214 29.7983 12.0234 29.7983 14.6676C29.7983 17.3133 27.6458 19.4658 25 19.4658C22.3526 19.4658 20.1988 17.3134 20.1988 14.6676C20.1988 12.0233 22.3526 9.87214 25 9.87214ZM21.2852 20.3022C22.3518 21.0071 23.6284 21.419 25 21.419C26.3709 21.419 27.6469 21.0072 28.713 20.3024C31.1014 21.5945 32.666 24.0307 32.8345 26.7248C28.1528 30.0163 21.8473 30.0164 17.1655 26.7248C17.3339 24.0309 18.8979 21.5946 21.2852 20.3022Z" fill="#253238"/>
<path d="M35.3318 6.23198C35.4786 6.23198 35.6276 6.19878 35.7679 6.12866C36.2503 5.88745 36.4458 5.30083 36.2046 4.81841L36.2018 4.81284C35.9606 4.33022 35.3756 4.13765 34.893 4.37876C34.4105 4.61997 34.2164 5.20933 34.4576 5.69175C34.6287 6.03413 34.9736 6.23198 35.3318 6.23198Z" fill="#07B52D"/>
<path d="M33.1266 38.703L28.1888 37.8649L25.8652 33.4294C25.6966 33.1077 25.3634 32.906 25.0002 32.906C24.6369 32.906 24.3037 33.1077 24.1351 33.4294L21.8115 37.8648L16.871 38.7029C16.5127 38.7637 16.2177 39.0184 16.1054 39.3641C15.9931 39.7097 16.0821 40.0891 16.3363 40.3489L19.8394 43.9284L19.1121 48.881C19.0593 49.2404 19.2103 49.5994 19.5042 49.8128C19.798 50.0266 20.186 50.0592 20.5116 49.8981L25.0001 47.6764L29.4887 49.8981C29.6259 49.966 29.7742 49.9995 29.9218 49.9995C30.1246 49.9995 30.3261 49.9364 30.4962 49.8128C30.7899 49.5993 30.941 49.2403 30.8883 48.881L30.1608 43.9282L33.6614 40.3487C33.9155 40.0889 34.0043 39.7095 33.892 39.3639C33.7797 39.0184 33.4848 38.7638 33.1266 38.703ZM28.426 42.9085C28.2129 43.1266 28.1137 43.4317 28.158 43.7333L28.6849 47.3209L25.4333 45.7116C25.2967 45.644 25.1484 45.6102 25.0001 45.6102C24.8517 45.6102 24.7034 45.644 24.5669 45.7116L21.3153 47.3209L21.8421 43.7333C21.8865 43.4315 21.7872 43.1264 21.5739 42.9083L19.0375 40.3166L22.6152 39.7097C22.9159 39.6587 23.1755 39.4702 23.317 39.2L25.0001 35.9872L26.6832 39.1999C26.8247 39.4701 27.0842 39.6586 27.3848 39.7096L30.9608 40.3166L28.426 42.9085Z" fill="#07B52D"/>
<path d="M15.0205 31.4694L11.5895 30.8861L9.97756 27.8073C9.8091 27.4855 9.4759 27.2838 9.11262 27.2837C9.11252 27.2837 9.11242 27.2837 9.11232 27.2837C8.74924 27.2837 8.41603 27.4853 8.24738 27.8068L6.63273 30.8861L3.20393 31.4694C2.84582 31.5304 2.55109 31.7851 2.43889 32.1306C2.32668 32.4761 2.41555 32.8554 2.66955 33.1151L5.1009 35.6011L4.59523 39.0395C4.5424 39.3989 4.69338 39.7579 4.98723 39.9715C5.28117 40.1853 5.66936 40.2179 5.99475 40.0567L9.11232 38.5133L12.2299 40.0567C12.3671 40.1246 12.5154 40.1581 12.6631 40.1581C12.8658 40.1581 13.0674 40.095 13.2374 39.9715C13.5313 39.7578 13.6822 39.3988 13.6294 39.0395L13.1237 35.6011L15.5551 33.1151C15.8091 32.8554 15.898 32.4762 15.7857 32.1306C15.6735 31.7851 15.3787 31.5303 15.0205 31.4694ZM11.3889 34.5814C11.1756 34.7996 11.0765 35.1047 11.1209 35.4064L11.4257 37.4792L9.54562 36.5484C9.4091 36.4809 9.26076 36.4471 9.11232 36.4471C8.96389 36.4471 8.81555 36.4809 8.67902 36.5484L6.79894 37.4792L7.10373 35.4064C7.14816 35.1047 7.04894 34.7996 6.83576 34.5814L5.36955 33.0823L7.43693 32.7307C7.73723 32.6796 7.9966 32.4912 8.1381 32.2214L9.11164 30.3647L10.0834 32.2209C10.2248 32.491 10.4844 32.6796 10.785 32.7307L12.8548 33.0825L11.3889 34.5814Z" fill="#253238"/>
<path d="M47.5606 32.1306C47.4484 31.7851 47.1536 31.5304 46.7955 31.4694L43.3667 30.8861L41.7521 27.8068C41.5834 27.4853 41.2503 27.2837 40.8871 27.2837C40.524 27.2837 40.1908 27.4853 40.0222 27.8068L38.4075 30.8861L34.9788 31.4694C34.6207 31.5304 34.326 31.7851 34.2138 32.1306C34.1016 32.4761 34.1904 32.8554 34.4445 33.1151L36.8758 35.6011L36.3701 39.0395C36.3173 39.3989 36.4683 39.7579 36.7621 39.9715C37.056 40.1853 37.4443 40.2179 37.7697 40.0567L40.8872 38.5133L44.0048 40.0567C44.142 40.1246 44.2903 40.1581 44.438 40.1581C44.6407 40.1581 44.8423 40.095 45.0123 39.9715C45.3062 39.7578 45.4572 39.3988 45.4043 39.0395L44.8987 35.6011L47.33 33.1151C47.5838 32.8555 47.6728 32.4762 47.5606 32.1306ZM43.1637 34.5814C42.9504 34.7996 42.8513 35.1047 42.8957 35.4064L43.2005 37.4792L41.3204 36.5484C41.1839 36.4809 41.0356 36.4471 40.8871 36.4471C40.7387 36.4471 40.5904 36.4809 40.4538 36.5484L38.5738 37.4792L38.8785 35.4064C38.923 35.1047 38.8238 34.7996 38.6106 34.5814L37.1445 33.0823L39.2118 32.7307C39.5121 32.6796 39.7715 32.4912 39.913 32.2214L40.8872 30.3635L41.8614 32.2214C42.003 32.4912 42.2622 32.6796 42.5626 32.7307L44.63 33.0823L43.1637 34.5814Z" fill="#253238"/>
</g>
<defs>
<clipPath id="clip0">
<rect width="50" height="50" fill="white"/>
</clipPath>
</defs>
</svg>
