<svg width="50" height="50" viewBox="0 0 50 50" fill="none" xmlns="http://www.w3.org/2000/svg">
<path d="M19.8659 26.4171C19.5796 26.7987 19.5244 27.2578 19.7182 27.6453C19.9136 28.0364 20.3221 28.2699 20.8106 28.2699H27.0491C27.5884 28.2699 28.0255 27.8328 28.0255 27.2935C28.0255 26.7543 27.5884 26.3171 27.0491 26.3171H22.393L27.0119 20.2291C27.0364 20.1967 27.059 20.1627 27.0794 20.1275C27.6046 19.2188 27.7442 18.1606 27.4725 17.1478C27.2012 16.1361 26.5518 15.291 25.6454 14.7688C24.7375 14.244 23.6803 14.1043 22.6687 14.3752C21.6575 14.6461 20.8115 15.2952 20.2866 16.2034C19.8787 16.9101 19.7022 17.7105 19.7764 18.5183C19.8256 19.0553 20.3013 19.4517 20.8379 19.4013C21.3749 19.352 21.7702 18.8768 21.7209 18.3398C21.6839 17.9362 21.7727 17.5351 21.9775 17.1803C22.2414 16.724 22.6663 16.3976 23.1739 16.2617C23.6815 16.1258 24.2121 16.1961 24.6695 16.4604C25.1248 16.7227 25.4504 17.1465 25.5865 17.654C25.7181 18.1447 25.6574 18.6569 25.4157 19.1025L19.8659 26.4171Z" fill="#07B52D"/>
<path d="M35.1493 28.2701C35.6885 28.2701 36.1257 27.833 36.1257 27.2937V25.0888H36.9063C37.4456 25.0888 37.8827 24.6516 37.8827 24.1124C37.8827 23.5731 37.4456 23.136 36.9063 23.136H36.1257V15.2196C36.1257 14.7901 35.845 14.4111 35.4341 14.2857C35.0234 14.1604 34.5788 14.3182 34.3391 14.6746L28.3572 23.5673C28.1557 23.8667 28.1359 24.2528 28.3055 24.5713C28.4751 24.8898 28.8065 25.0888 29.1674 25.0888H34.1729V27.2937C34.1729 27.833 34.61 28.2701 35.1493 28.2701ZM31.0009 23.136L34.1728 18.4206V23.136H31.0009Z" fill="#07B52D"/>
<path d="M46.6967 9.87303C46.4076 9.41783 45.8042 9.28329 45.349 9.5724C44.8938 9.86151 44.7591 10.4649 45.0483 10.9201C46.8354 13.7335 47.8545 16.9505 48.0216 20.2787H44.0928C43.5536 20.2787 43.1164 20.7158 43.1164 21.2551C43.1164 21.7943 43.5536 22.2315 44.0928 22.2315H48.0212C47.6691 29.1532 43.5951 35.4048 37.3866 38.519C37.0407 38.1485 36.6402 37.7685 36.1763 37.3805L31.2092 33.2284C29.7345 31.9975 27.6689 32.0229 26.4043 33.2875L21.1261 38.5659C17.4778 36.1131 13.8857 32.5206 11.4332 28.8721C12.4663 27.8391 14.4741 25.8317 15.3878 24.9203L16.7099 23.5954C17.9766 22.3286 18.0016 20.2625 16.7689 18.7903L12.6198 13.823C12.2318 13.3593 11.8518 12.9586 11.4814 12.6128C14.593 6.40419 20.8442 2.33007 27.7683 1.97818V5.90652C27.7683 6.44578 28.2054 6.88291 28.7447 6.88291C29.2839 6.88291 29.721 6.44578 29.721 5.90652V1.97769C33.0815 2.14622 36.3264 3.18286 39.1601 5.00198C39.6137 5.29334 40.2178 5.16172 40.5092 4.70779C40.8005 4.25406 40.6688 3.64997 40.215 3.35871C36.7924 1.16142 32.826 0 28.7447 0C24.5853 0 20.557 1.20107 17.0951 3.47343C14.0469 5.47427 11.5781 8.20368 9.90098 11.4139C8.53285 10.6116 7.36069 10.5289 6.49531 10.6733C4.69288 10.9744 3.17722 12.4066 2.33703 14.6027C0.229576 20.1131 -1.98108 28.0302 3.13113 33.1424L16.8575 46.8691C19.1736 49.1868 22.0653 49.9999 25.0483 49.9999C28.6494 49.9999 32.3834 48.8147 35.3971 47.6606C37.5924 46.8206 39.0241 45.3052 39.3252 43.5031C39.4697 42.6382 39.387 41.4665 38.5854 40.099C41.796 38.4206 44.5255 35.9515 46.526 32.9039C48.7983 29.4423 49.9993 25.4141 49.9993 21.255C49.9992 17.2102 48.8573 13.2744 46.6967 9.87303ZM37.399 43.1813C37.2177 44.2667 36.2084 45.2593 34.699 45.8368C26.7491 48.8813 21.5185 48.7708 18.2385 45.4886L4.51195 31.7617C1.23175 28.4814 1.12025 23.2507 4.16094 15.3004C4.73867 13.7905 5.73157 12.7808 6.81723 12.5994C8.09933 12.385 9.58765 13.2416 11.1215 15.0755L15.271 20.0431C15.776 20.6461 15.9581 21.5857 15.3284 22.2155L14.0072 23.5395C13.1822 24.3625 11.4617 26.0825 10.3753 27.1687C9.96249 26.4433 9.60093 25.7222 9.30069 25.0143C9.09008 24.5179 8.51684 24.2861 8.02054 24.4967C7.52414 24.7072 7.29234 25.2804 7.50295 25.7769C8.83973 28.9288 11.309 32.3977 14.4559 35.5445C16.4624 37.5511 18.5998 39.2815 20.7026 40.6193C20.7212 40.6322 20.7403 40.644 20.7595 40.6554C21.9351 41.3995 23.0994 42.021 24.2234 42.4977C24.3477 42.5505 24.477 42.5754 24.6041 42.5754C24.9843 42.5754 25.3457 42.352 25.5034 41.98C25.714 41.4836 25.4822 40.9104 24.9858 40.6998C24.2773 40.3993 23.5558 40.0374 22.8296 39.6241L27.7852 34.6683C28.413 34.0406 29.3533 34.2229 29.9573 34.7271L34.9238 38.8786C36.7572 40.4119 37.6131 41.8997 37.399 43.1813Z" fill="#253238"/>
<path d="M43.0855 7.89541C43.3326 7.89541 43.58 7.80216 43.7701 7.61518C44.1546 7.23702 44.1597 6.61887 43.7817 6.23436L43.7789 6.23153C43.4008 5.84702 42.7841 5.84322 42.3995 6.22138C42.015 6.59953 42.0112 7.21906 42.3893 7.60356C42.5804 7.79797 42.8329 7.89541 43.0855 7.89541Z" fill="#07B52D"/>
</svg>
