<svg width="50" height="50" viewBox="0 0 50 50" fill="none" xmlns="http://www.w3.org/2000/svg">
<path d="M45.8463 12.4595H45.3395C45.0399 11.4073 44.6213 10.3978 44.0893 9.44332L44.4495 9.08297C44.8617 8.67097 45.0886 8.12147 45.0886 7.53565C45.0886 6.94982 44.8617 6.40042 44.4493 5.98793L42.0489 3.59044C41.6367 3.1757 41.0865 2.94739 40.4997 2.94739C39.9128 2.94739 39.3626 3.1757 38.9524 3.58839L38.5926 3.94824C37.6374 3.41456 36.6275 2.99524 35.5759 2.69573V2.18901C35.576 0.982006 34.5941 0 33.387 0H29.9934C28.7864 0 27.8044 0.982006 27.8044 2.18901V2.69573C26.753 2.99514 25.7425 3.41456 24.7854 3.94863L24.4272 3.59044C24.0148 3.1757 23.4646 2.94739 22.8778 2.94748C22.291 2.94748 21.7409 3.1759 21.3307 3.58848L18.9309 5.98842C18.5187 6.40042 18.2918 6.94992 18.2918 7.53575C18.2918 8.12157 18.5187 8.67097 18.9308 9.08297L19.2909 9.44322C18.7567 10.4006 18.3379 11.4104 18.04 12.4595H17.5313C16.3243 12.4595 15.3423 13.4416 15.3423 14.6486V18.0451C15.3423 19.2521 16.3243 20.2342 17.5313 20.2342H18.04C18.3379 21.2832 18.7567 22.293 19.2909 23.2505L18.9308 23.6107C18.5186 24.0227 18.2917 24.5722 18.2917 25.1581C18.2917 25.7438 18.5186 26.2933 18.9307 26.7053L21.3287 29.1033C21.7409 29.518 22.2909 29.7463 22.8777 29.7463H22.8778C23.4646 29.7463 24.0149 29.518 24.4252 29.1053L24.7853 28.7451C25.7434 29.2796 26.7539 29.6985 27.8043 29.9963V30.5048C27.8043 31.7118 28.7863 32.6938 29.9933 32.6938H33.3869C34.5939 32.6938 35.5759 31.7118 35.5759 30.5048V29.9963C36.6266 29.6984 37.6363 29.2797 38.5926 28.7455L38.9504 29.1033C39.3626 29.518 39.9128 29.7463 40.4996 29.7463C41.0865 29.7463 41.6367 29.5179 42.0465 29.1057L44.4495 26.7053C44.8616 26.2932 45.0885 25.7437 45.0885 25.158C45.0885 24.5721 44.8616 24.0227 44.4495 23.6107L44.0892 23.2504C44.6212 22.2959 45.0397 21.2864 45.3394 20.2342H45.8462C47.0532 20.2342 48.0352 19.2521 48.0352 18.0451V14.6486C48.0353 13.4416 47.0534 12.4595 45.8463 12.4595ZM33.623 30.5047C33.623 30.6326 33.515 30.7406 33.387 30.7406H29.9934C29.8654 30.7406 29.7574 30.6326 29.7574 30.5047V29.2369V23.0805C29.7574 22.6721 29.5033 22.3069 29.1205 22.1649C26.4964 21.1917 24.7334 18.6661 24.7334 15.8805C24.7334 13.6728 25.8326 11.6033 27.6734 10.345C27.756 10.2886 27.8291 10.2425 27.8929 10.2047C27.8894 10.3317 27.8804 10.4524 27.8757 10.5154C27.8683 10.6145 27.8625 10.6927 27.8625 10.7703V15.3793C27.8625 17.4948 29.5155 19.2615 31.6255 19.4015C31.6685 19.4043 31.7117 19.4043 31.7548 19.4015C33.8633 19.2616 35.515 17.4949 35.515 15.3793V10.7703C35.515 10.6931 35.5093 10.6154 35.502 10.5168C35.4973 10.4535 35.4884 10.3322 35.4849 10.2046C35.5486 10.2423 35.6213 10.2883 35.7036 10.3447C37.5448 11.6032 38.6441 13.6727 38.6441 15.8804C38.6441 18.6657 36.8821 21.1914 34.2595 22.1649C33.8768 22.307 33.6228 22.6721 33.6228 23.0804V29.2368V30.5047H33.623ZM46.0822 18.0451C46.0822 18.1708 45.972 18.2811 45.8463 18.2811H44.5813C44.125 18.2811 43.7295 18.597 43.6289 19.042C43.3196 20.4085 42.784 21.7006 42.0368 22.8825C41.7929 23.2685 41.8489 23.772 42.1718 24.0948L43.0687 24.9917C43.1269 25.0499 43.1356 25.1208 43.1356 25.158C43.1356 25.195 43.1269 25.266 43.069 25.3238L40.6639 27.7262C40.6089 27.7815 40.5442 27.7931 40.4997 27.7931C40.4552 27.7931 40.3906 27.7815 40.3335 27.7241L39.4366 26.8272C39.1133 26.5039 38.6093 26.4483 38.2233 26.6928C37.3898 27.221 36.5025 27.6401 35.576 27.9499V23.73C38.6057 22.32 40.5974 19.2476 40.5974 15.8803C40.5974 13.0271 39.18 10.3549 36.806 8.7322C36.4423 8.48367 35.3364 7.72754 34.3691 8.28426C33.4194 8.83112 33.514 10.113 33.5543 10.6605C33.5578 10.708 33.5613 10.748 33.562 10.7703V15.3793C33.562 16.4482 32.7451 17.3444 31.6902 17.4474C30.6339 17.3443 29.8156 16.4481 29.8156 15.3793L29.8155 10.7774C29.8164 10.748 29.8199 10.708 29.8235 10.6603C29.8642 10.1131 29.9596 8.8319 29.0106 8.28475C28.0437 7.72705 26.9361 8.48348 26.5718 8.7322C24.1976 10.355 22.7803 13.0272 22.7803 15.8804C22.7803 19.2481 24.7731 22.3208 27.8044 23.7304V27.95C26.8777 27.6402 25.9894 27.2209 25.1534 26.6924C24.9926 26.5908 24.8118 26.5413 24.6318 26.5413C24.3796 26.5413 24.1294 26.6389 23.941 26.8273L23.0422 27.7262C22.9872 27.7816 22.9225 27.7932 22.8779 27.7932C22.8334 27.7932 22.7689 27.7816 22.7118 27.7243L20.3119 25.3243C20.2536 25.2661 20.2449 25.1951 20.2449 25.1581C20.2449 25.1209 20.2536 25.05 20.3119 24.9917L21.2087 24.0948C21.5316 23.772 21.5876 23.2685 21.3437 22.8825C20.5927 21.6944 20.0572 20.4028 19.752 19.0437C19.652 18.5979 19.2561 18.281 18.7992 18.281H17.5315C17.4058 18.281 17.2956 18.1707 17.2956 18.045V14.6485C17.2956 14.5205 17.4036 14.4125 17.5315 14.4125H18.7992C19.2561 14.4125 19.6519 14.0956 19.752 13.6498C20.0572 12.2907 20.5926 10.999 21.3437 9.81098C21.5876 9.42505 21.5316 8.92155 21.2087 8.59871L20.3118 7.70176C20.2536 7.64356 20.2449 7.57266 20.2449 7.53555C20.2449 7.49844 20.2536 7.42755 20.3119 7.36925L22.7139 4.96716C22.7689 4.91189 22.8335 4.90027 22.878 4.90027C22.9226 4.90027 22.9872 4.91189 23.0442 4.96921L23.9411 5.86616C24.2641 6.1891 24.7676 6.24506 25.1535 6.00112C26.3401 5.25094 27.6331 4.71433 28.9962 4.40643C29.4415 4.30585 29.7576 3.91025 29.7576 3.45392V2.18901C29.7576 2.06108 29.8656 1.95308 29.9936 1.95308H33.3872C33.5152 1.95308 33.6232 2.06108 33.6232 2.18901V3.45411C33.6232 3.91055 33.9393 4.30604 34.3845 4.40663C35.7489 4.71482 37.0405 5.25114 38.2235 6.00082C38.6096 6.24535 39.1135 6.18969 39.4368 5.86645L40.3357 4.96745C40.3907 4.91218 40.4554 4.90056 40.4998 4.90056C40.5444 4.90056 40.609 4.91218 40.6664 4.96989L43.0689 7.36954C43.1271 7.42774 43.1358 7.49864 43.1358 7.53575C43.1358 7.57285 43.1271 7.64375 43.0688 7.70205L42.172 8.599C41.8491 8.92184 41.7931 9.42535 42.037 9.81127C42.7841 10.9932 43.3198 12.2852 43.6291 13.6518C43.7297 14.0968 44.1252 14.4127 44.5815 14.4127H45.8465C45.9744 14.4127 46.0824 14.5207 46.0824 14.6487V18.0451H46.0822Z" fill="#253238"/>
<path fill-rule="evenodd" clip-rule="evenodd" d="M27.8043 30.5048V29.9963L27.8044 23.7304C24.7731 22.3208 22.7803 19.2481 22.7803 15.8804C22.7803 13.0272 24.1976 10.355 26.5718 8.7322C26.9361 8.48348 28.0437 7.72705 29.0106 8.28475C29.9596 8.8319 29.8642 10.1131 29.8235 10.6603C29.8226 10.6721 29.8217 10.6835 29.8209 10.6943C29.8184 10.7272 29.8162 10.7553 29.8155 10.7774L29.8156 15.3793C29.8156 16.4481 30.6339 17.3443 31.6902 17.4474C32.7451 17.3444 33.562 16.4482 33.562 15.3793V10.7703C33.5615 10.7541 33.5595 10.7287 33.5571 10.6978C33.5562 10.6861 33.5553 10.6736 33.5543 10.6605C33.514 10.113 33.4194 8.83112 34.3691 8.28426C35.3364 7.72754 36.4423 8.48367 36.806 8.7322C39.18 10.3549 40.5974 13.0271 40.5974 15.8803C40.5974 19.2476 38.6057 22.32 35.576 23.73L35.576 29.9963V30.5048C35.576 31.7118 34.5939 32.6938 33.3869 32.6938H29.9933C28.7863 32.6938 27.8043 31.7118 27.8043 30.5048ZM33.387 30.7406C33.515 30.7406 33.623 30.6326 33.623 30.5047L33.6228 29.2368V23.0804C33.6228 22.6721 33.8768 22.307 34.2595 22.1649C36.8821 21.1914 38.6441 18.6657 38.6441 15.8804C38.6441 13.6727 37.5448 11.6032 35.7036 10.3447C35.6213 10.2883 35.5486 10.2423 35.4849 10.2046C35.4884 10.3322 35.4973 10.4535 35.502 10.5168L35.5023 10.5199C35.5094 10.617 35.515 10.6939 35.515 10.7703V15.3793C35.515 17.4949 33.8633 19.2616 31.7548 19.4015C31.7117 19.4043 31.6685 19.4043 31.6255 19.4015C29.5155 19.2615 27.8625 17.4948 27.8625 15.3793V10.7703C27.8625 10.6938 27.8682 10.6166 27.8754 10.5194L27.8757 10.5154C27.8804 10.4524 27.8894 10.3317 27.8929 10.2047C27.8291 10.2425 27.756 10.2886 27.6734 10.345C25.8326 11.6033 24.7334 13.6728 24.7334 15.8805C24.7334 18.6661 26.4964 21.1917 29.1205 22.1649C29.5033 22.3069 29.7574 22.6721 29.7574 23.0805V29.2369V30.5047C29.7574 30.6326 29.8655 30.7406 29.9934 30.7406H33.387Z" fill="#07B52D"/>
<path d="M37.3802 42.999C36.9989 43.3803 36.9989 43.9987 37.3802 44.3801C37.571 44.5707 37.8209 44.6662 38.0708 44.6662C38.3207 44.6662 38.5706 44.5707 38.7613 44.3801L38.764 44.3774C39.1454 43.996 39.144 43.3791 38.7626 42.9977C38.3811 42.6164 37.7616 42.6178 37.3802 42.999Z" fill="#07B52D"/>
<path d="M41.9044 33.5392L34.1515 37.5207C33.4943 36.84 32.5734 36.4154 31.5548 36.4154H26.2428C25.9454 36.4154 25.8727 36.3918 25.8679 36.3901C25.8248 36.3675 25.6887 36.2396 25.5794 36.1368L25.5309 36.0913C21.2334 32.0458 17.6031 32.3022 13.4748 33.9314C12.8069 34.1951 12.794 34.1957 12.1232 34.2243L10.922 34.2252C10.5799 33.1929 9.60606 32.4458 8.46048 32.4458H4.55472C3.12634 32.4458 1.96436 33.6092 1.96436 35.039V45.2896C1.96436 46.7179 3.12634 47.88 4.55472 47.88H8.46048C9.60596 47.88 10.5797 47.1338 10.9219 46.1028H13.1192C13.3132 46.1028 13.3132 46.1028 13.5389 46.1664C13.6209 46.1895 13.7207 46.2176 13.8496 46.2523L23.9562 48.9561C24.4017 49.0765 24.8103 49.1949 25.2055 49.3094C26.5004 49.6845 27.5888 50 28.7233 50C30.0054 50 31.3461 49.597 33.1095 48.4219C33.118 48.4162 33.1265 48.4104 33.1349 48.4044L35.0643 47.0286C35.5034 46.7154 35.6056 46.1056 35.2924 45.6665C34.9792 45.2272 34.3693 45.1252 33.9304 45.4384L32.0138 46.805C29.4549 48.507 28.3683 48.1924 25.749 47.4334C25.3455 47.3165 24.9283 47.1956 24.4634 47.0701L14.356 44.3661C14.2377 44.3343 14.1448 44.3081 14.0686 44.2866C13.6999 44.1827 13.562 44.1499 13.1193 44.1499H11.0537V36.179H12.109C12.1231 36.179 12.137 36.1787 12.151 36.1781L12.2067 36.1758C13.0253 36.1408 13.2543 36.1185 14.192 35.7483C17.8178 34.3174 20.6165 34.1474 24.1936 37.5148L24.2419 37.5602C24.8532 38.1347 25.2053 38.3687 26.2429 38.3687H31.5549C32.1783 38.3687 32.722 38.7148 33.0054 39.2246C33.0084 39.2303 33.0119 39.2357 33.015 39.2413C33.1416 39.4754 33.2137 39.7432 33.2137 40.0276C33.2137 40.9407 32.4696 41.6836 31.555 41.6836H22.9461C22.4069 41.6836 21.9696 42.1208 21.9696 42.6601C21.9696 43.1994 22.4069 43.6366 22.9461 43.6366H31.555C33.5466 43.6366 35.1667 42.0176 35.1667 40.0276C35.1667 39.757 35.1359 39.4938 35.0792 39.2402L42.7966 35.2769C43.5271 34.9019 44.5259 34.9421 45.0218 35.7468C45.4604 36.4561 45.2191 37.3988 44.4608 37.9394L41.0755 40.3505C40.6361 40.6634 40.5336 41.2731 40.8465 41.7125C41.037 41.9799 41.3376 42.1226 41.6427 42.1226C41.8387 42.1226 42.0366 42.0637 42.2084 41.9415L45.5941 39.5301C47.2021 38.3837 47.67 36.3156 46.6835 34.7208C45.7134 33.1465 43.659 32.6385 41.9044 33.5392ZM9.1005 45.2896C9.1005 45.6351 8.80744 45.9269 8.46048 45.9269H4.55472C4.20922 45.9269 3.91743 45.635 3.91743 45.2896V35.0391C3.91743 34.6862 4.20336 34.399 4.55472 34.399H8.46048C8.80744 34.399 9.1005 34.692 9.1005 35.0391V45.2896Z" fill="#253238"/>
</svg>
