<svg width="16" height="16" viewBox="0 0 16 16" fill="none" xmlns="http://www.w3.org/2000/svg">
<g clip-path="url(#clip0)">
<path d="M12.833 0H3.16634C2.15501 0 1.33301 0.822 1.33301 1.83333V14.1667C1.33301 15.178 2.15501 16 3.16634 16H12.833C13.8443 16 14.6663 15.178 14.6663 14.1667V1.83333C14.6663 0.822 13.8443 0 12.833 0ZM6.51967 12.48C6.71501 12.6753 6.71501 12.992 6.51967 13.1873C6.42234 13.2847 6.29434 13.3333 6.16634 13.3333C6.03834 13.3333 5.91034 13.2847 5.81301 13.1867L5.33301 12.7073L4.85301 13.1873C4.75567 13.2847 4.62767 13.3333 4.49967 13.3333C4.37167 13.3333 4.24367 13.2847 4.14634 13.1867C3.95101 12.9913 3.95101 12.6747 4.14634 12.4793L4.62567 12L4.14567 11.52C3.95034 11.3247 3.95034 11.008 4.14567 10.8127C4.34101 10.6173 4.65767 10.6173 4.85301 10.8127L5.33301 11.2927L5.81301 10.8127C6.00834 10.6173 6.32501 10.6173 6.52034 10.8127C6.71567 11.008 6.71567 11.3247 6.52034 11.52L6.04034 12L6.51967 12.48ZM6.16634 8.5H5.83301V8.83333C5.83301 9.10933 5.60901 9.33333 5.33301 9.33333C5.05701 9.33333 4.83301 9.10933 4.83301 8.83333V8.5H4.49967C4.22367 8.5 3.99967 8.276 3.99967 8C3.99967 7.724 4.22367 7.5 4.49967 7.5H4.83301V7.16667C4.83301 6.89067 5.05701 6.66667 5.33301 6.66667C5.60901 6.66667 5.83301 6.89067 5.83301 7.16667V7.5H6.16634C6.44234 7.5 6.66634 7.724 6.66634 8C6.66634 8.276 6.44234 8.5 6.16634 8.5ZM11.4997 13.3333H9.83301C9.55701 13.3333 9.33301 13.1093 9.33301 12.8333C9.33301 12.5573 9.55701 12.3333 9.83301 12.3333H11.4997C11.7757 12.3333 11.9997 12.5573 11.9997 12.8333C11.9997 13.1093 11.7757 13.3333 11.4997 13.3333ZM11.4997 11.6667H9.83301C9.55701 11.6667 9.33301 11.4427 9.33301 11.1667C9.33301 10.8907 9.55701 10.6667 9.83301 10.6667H11.4997C11.7757 10.6667 11.9997 10.8907 11.9997 11.1667C11.9997 11.4427 11.7757 11.6667 11.4997 11.6667ZM11.4997 8.66667H9.83301C9.55701 8.66667 9.33301 8.44267 9.33301 8.16667C9.33301 7.89067 9.55701 7.66667 9.83301 7.66667H11.4997C11.7757 7.66667 11.9997 7.89067 11.9997 8.16667C11.9997 8.44267 11.7757 8.66667 11.4997 8.66667ZM12.6663 4.16667C12.6663 4.81 12.143 5.33333 11.4997 5.33333H4.49967C3.85634 5.33333 3.33301 4.81 3.33301 4.16667V3.16667C3.33301 2.52333 3.85634 2 4.49967 2H11.4997C12.143 2 12.6663 2.52333 12.6663 3.16667V4.16667Z" fill="#3F94D5"/>
</g>
<defs>
<clipPath id="clip0">
<rect width="16" height="16" fill="white"/>
</clipPath>
</defs>
</svg>
