<svg width="19" height="19" viewBox="0 0 19 19" fill="none" xmlns="http://www.w3.org/2000/svg">
<path d="M17.7499 13.7927L17.7498 13.7927V13.8051L17.7498 16.4301L17.7498 16.4321C17.7505 16.6062 17.7148 16.7785 17.6451 16.938C17.5753 17.0974 17.4731 17.2406 17.3448 17.3583C17.2165 17.476 17.0651 17.5655 16.9002 17.6213C16.7367 17.6766 16.5634 17.6974 16.3914 17.6825C13.7784 17.3978 11.2685 16.5045 9.06306 15.0743L9.06307 15.0743L9.05917 15.0718C7.00697 13.7678 5.26707 12.0279 3.96302 9.97568L3.96303 9.97567L3.96065 9.97199C2.52534 7.75638 1.63183 5.234 1.35241 2.60898C1.3374 2.43733 1.35804 2.26442 1.41304 2.1011C1.46843 1.93664 1.55746 1.78552 1.67446 1.65735C1.79146 1.52918 1.93386 1.42678 2.0926 1.35666C2.25129 1.28657 2.42283 1.25027 2.5963 1.25008H5.22101V1.25011L5.22593 1.25006C5.52924 1.24708 5.8233 1.35448 6.05328 1.55227C6.28273 1.7496 6.43278 2.02345 6.47563 2.32298C6.59144 3.19955 6.80594 4.06024 7.11506 4.88864L7.11548 4.88977C7.19957 5.11347 7.21777 5.35659 7.16792 5.59032C7.11816 5.82363 7.00268 6.03782 6.83512 6.20761L5.72495 7.31778C5.5658 7.47694 5.5326 7.72282 5.64386 7.91848C6.93396 10.1873 8.81252 12.0659 11.0814 13.356C11.277 13.4672 11.5229 13.434 11.6821 13.2749L12.7913 12.1656C12.7916 12.1653 12.7919 12.165 12.7922 12.1648C12.962 11.9972 13.1762 11.8817 13.4095 11.8319C13.6433 11.7821 13.8864 11.8003 14.1101 11.8844L14.1112 11.8848C14.9396 12.1939 15.8004 12.4084 16.677 12.5242C16.9798 12.5675 17.2562 12.7202 17.454 12.9536C17.6522 13.1875 17.7575 13.4862 17.7499 13.7927Z" fill="#3F94D5" stroke="#3F94D5" stroke-linecap="round" stroke-linejoin="round"/>
</svg>
