<svg width="16" height="16" viewBox="0 0 16 16" fill="none" xmlns="http://www.w3.org/2000/svg">
<g clip-path="url(#clip0)">
<path d="M5.63872 10.7087C4.89334 9.96328 3.65894 9.63465 2.51769 10.1154C1.50694 10.5713 0.846406 11.5835 0.835406 12.6995C0.835406 13.9318 0.620719 14.9228 0.408781 15.2648L0 15.9239L0.773625 15.9793C0.963125 15.993 1.16181 15.9999 1.36644 15.9999C2.87247 15.9999 4.7095 15.6218 5.70147 14.7109C6.67622 13.8025 6.78906 11.859 5.63872 10.7087Z" fill="#3F94D5"/>
<path d="M7.63312 8.72265C7.17434 8.26365 6.65743 7.9043 6.10987 7.64355C5.63575 8.13274 5.17459 8.62809 4.72656 9.12168C5.3129 9.28671 5.85237 9.59565 6.30196 10.0465C6.75218 10.4958 7.07443 11.0559 7.24477 11.6668C7.73268 11.2248 8.22343 10.7697 8.71636 10.2954C8.46608 9.72337 8.10383 9.18046 7.63312 8.72265Z" fill="#3F94D5"/>
<path d="M15.7909 0.208651C15.4398 -0.142005 14.8625 -0.306349 12.0555 1.87718C10.3856 3.17631 8.6578 5.07594 6.84002 6.89372L6.80298 6.93075L6.80155 6.92991L6.79102 6.9405C7.32808 7.23091 7.83586 7.60004 8.29111 8.05557C8.76089 8.51235 9.14027 9.04497 9.42802 9.61144L9.44102 9.59869L9.43914 9.59554L9.49139 9.54329C11.3083 7.72641 12.8228 5.61441 14.1219 3.94403C16.3036 1.13881 16.1429 0.560652 15.7909 0.208651Z" fill="#3F94D5"/>
</g>
<defs>
<clipPath id="clip0">
<rect width="16" height="16" fill="white"/>
</clipPath>
</defs>
</svg>
