<svg width="60" height="60" viewBox="0 0 60 60" fill="none" xmlns="http://www.w3.org/2000/svg">
<path d="M25.1613 14.516C25.1613 12.9153 26.4639 11.6127 28.0645 11.6127H32.9032V9.67725H28.0645C25.3965 9.67725 23.2258 11.8479 23.2258 14.516H22.0297L0 25.5308V30.9676H1.93548V34.8385H3.87097V50.3224H1.93548V54.1934H0V59.9998H48.3871V54.1934H46.4516V50.3224H44.5161V34.8385H46.4516V30.9676H48.3871V25.5308L26.3574 14.516H25.1613ZM3.87097 52.2579H9.67742V54.1934H3.87097V52.2579ZM15.4839 34.8385V50.3224H13.5484V54.1934H11.6129V50.3224H9.67742V34.8385H11.6129V30.9676H13.5484V34.8385H15.4839ZM27.0968 34.8385V50.3224H25.1613V54.1934H23.2258V50.3224H21.2903V34.8385H23.2258V30.9676H25.1613V34.8385H27.0968ZM38.7097 34.8385V50.3224H36.7742V54.1934H34.8387V50.3224H32.9032V34.8385H34.8387V30.9676H36.7742V34.8385H38.7097ZM44.5161 52.2579V54.1934H38.7097V52.2579H44.5161ZM40.6452 50.3224V34.8385H42.5806V50.3224H40.6452ZM32.9032 32.9031H27.0968V30.9676H32.9032V32.9031ZM30.9677 34.8385V50.3224H29.0323V34.8385H30.9677ZM32.9032 52.2579V54.1934H27.0968V52.2579H32.9032ZM21.2903 32.9031H15.4839V30.9676H21.2903V32.9031ZM19.3548 34.8385V50.3224H17.4194V34.8385H19.3548ZM21.2903 52.2579V54.1934H15.4839V52.2579H21.2903ZM9.67742 32.9031H3.87097V30.9676H9.67742V32.9031ZM7.74194 34.8385V50.3224H5.80645V34.8385H7.74194ZM46.4516 56.1289V58.0643H1.93548V56.1289H46.4516ZM44.5161 32.9031H38.7097V30.9676H44.5161V32.9031ZM46.4516 29.0321H36.7742H34.8387H25.1613H23.2258H13.5484H11.6129H1.93548V26.7269L22.4865 16.4514H23.2258V23.2256H25.1613V16.4514H25.9006L46.4516 26.7269V29.0321Z" fill="#485F69"/>
<path d="M40.6454 25.1606H7.74219V27.0961H40.6454V25.1606Z" fill="#485F69"/>
<path d="M49.3546 0C43.4853 0 38.7095 4.77581 38.7095 10.6452C38.7095 16.5145 43.4853 21.2903 49.3546 21.2903C55.224 21.2903 59.9998 16.5145 59.9998 10.6452C59.9998 4.77581 55.224 0 49.3546 0ZM49.3546 19.3548C44.5517 19.3548 40.645 15.4481 40.645 10.6452C40.645 5.84226 44.5517 1.93548 49.3546 1.93548C54.1575 1.93548 58.0643 5.84226 58.0643 10.6452C58.0643 15.4481 54.1575 19.3548 49.3546 19.3548Z" fill="#485F69"/>
<path d="M36.7744 9.67725H34.8389V11.6127H36.7744V9.67725Z" fill="#485F69"/>
<path d="M54.1937 37.7417C54.1937 39.3423 52.8911 40.6449 51.2905 40.6449H50.3228V42.5804H51.2905C53.9586 42.5804 56.1292 40.4097 56.1292 37.7417V22.2578H54.1937V37.7417Z" fill="#485F69"/>
<path d="M48.3867 40.6455H46.4512V42.581H48.3867V40.6455Z" fill="#485F69"/>
<g clip-path="url(#clip0)">
<path d="M50.7716 12.2858C52.6716 12.2858 54.0001 10.9586 54.0001 9.05073C54.0001 7.14289 52.6716 5.85718 50.7716 5.85718H47.1251C46.9772 5.85718 46.8573 5.97711 46.8573 6.12503V10.7374H45.6966C45.5486 10.7374 45.4287 10.8573 45.4287 11.0052V12.0179C45.4287 12.1658 45.5486 12.2858 45.6966 12.2858H46.8573V13H45.6966C45.5486 13 45.4287 13.12 45.4287 13.2679V14.1608C45.4287 14.3087 45.5486 14.4286 45.6966 14.4286H46.8573V15.5893C46.8573 15.7372 46.9772 15.8572 47.1251 15.8572H48.4323C48.5802 15.8572 48.7001 15.7372 48.7001 15.5893V14.4286H52.3037C52.4516 14.4286 52.5716 14.3087 52.5716 14.1608V13.2679C52.5716 13.12 52.4516 13 52.3037 13H48.7001V12.2858H50.7716ZM48.7001 7.39173H50.4573C51.5001 7.39173 52.1287 8.04151 52.1287 9.05073C52.1287 10.0738 51.5001 10.7374 50.4287 10.7374H48.7001V7.39173Z" fill="#485F69"/>
</g>
<defs>
<clipPath id="clip0">
<rect width="8.57143" height="11.4286" fill="white" transform="translate(45.4287 5.14282)"/>
</clipPath>
</defs>
</svg>
