<svg width="60" height="60" viewBox="0 0 60 60" fill="none" xmlns="http://www.w3.org/2000/svg">
<g clip-path="url(#clip0)">
<path d="M28.7843 43.1807H21.6104C20.9632 43.1807 20.4385 43.7054 20.4385 44.3525C20.4385 44.9996 20.9631 45.5244 21.6104 45.5244H28.7843C29.4314 45.5244 29.9562 44.9996 29.9562 44.3525C29.9562 43.7054 29.4316 43.1807 28.7843 43.1807Z" fill="#485F69"/>
<path d="M40.8127 43.1807H33.6387C32.9916 43.1807 32.4668 43.7054 32.4668 44.3525C32.4668 44.9996 32.9916 45.5244 33.6387 45.5244H40.8127C41.4599 45.5244 41.9845 44.9998 41.9845 44.3525C41.9845 43.7054 41.4598 43.1807 40.8127 43.1807Z" fill="#485F69"/>
<path d="M53.0075 43.1807H45.8335C45.1864 43.1807 44.6616 43.7054 44.6616 44.3525C44.6616 44.9996 45.1864 45.5244 45.8335 45.5244H53.0075C53.6546 45.5244 54.1794 44.9996 54.1794 44.3525C54.1794 43.7054 53.6546 43.1807 53.0075 43.1807Z" fill="#485F69"/>
<path d="M50.6922 47.2239C49.9276 47.2239 49.2068 47.4136 48.5729 47.7469C47.939 47.4136 47.2183 47.2239 46.4537 47.2239C43.9335 47.2239 41.8833 49.2741 41.8833 51.7943C41.8833 54.3145 43.9335 56.3647 46.4537 56.3647C47.2183 56.3647 47.9391 56.175 48.5729 55.8417C49.2069 56.175 49.9276 56.3647 50.6922 56.3647C53.2124 56.3647 55.2626 54.3145 55.2626 51.7943C55.2626 49.2741 53.2124 47.2239 50.6922 47.2239ZM46.6951 54.0073C46.6158 54.0158 46.5353 54.021 46.4536 54.021C45.2258 54.021 44.2271 53.0222 44.2271 51.7944C44.2271 50.5667 45.226 49.5679 46.4536 49.5679C46.5353 49.5679 46.6157 49.5729 46.6951 49.5816C46.3305 50.2377 46.1219 50.992 46.1219 51.7944C46.1219 52.5967 46.3305 53.3511 46.6951 54.0073ZM48.5729 52.4748C48.5038 52.2601 48.4656 52.0317 48.4656 51.7943C48.4656 51.5569 48.5038 51.3285 48.5729 51.1138C48.6422 51.3285 48.6803 51.5569 48.6803 51.7943C48.6803 52.0317 48.6421 52.2601 48.5729 52.4748ZM50.6923 54.021C50.6106 54.021 50.5302 54.0159 50.4508 54.0073C50.8154 53.3511 51.024 52.5968 51.024 51.7944C51.024 50.992 50.8154 50.2377 50.4508 49.5816C50.5301 49.573 50.6106 49.5679 50.6923 49.5679C51.9201 49.5679 52.9188 50.5667 52.9188 51.7944C52.919 53.0222 51.9201 54.021 50.6923 54.021Z" fill="#485F69"/>
<path d="M30.0002 32.8167H21.5625C20.9154 32.8167 20.3906 33.3414 20.3906 33.9885V39.3743C20.3906 40.0215 20.9154 40.5462 21.5625 40.5462H30.0002C30.6473 40.5462 31.1721 40.0215 31.1721 39.3743V33.9885C31.1721 33.3414 30.6473 32.8167 30.0002 32.8167ZM28.8282 38.2025H22.7344V35.1604H28.8282V38.2025Z" fill="#485F69"/>
<path d="M30.1258 57.6562H30.1104C29.4632 57.6562 28.9385 58.181 28.9385 58.8281C28.9385 59.4752 29.4632 60 30.1104 60H30.1258C30.7729 60 31.2977 59.4752 31.2977 58.8281C31.2977 58.181 30.773 57.6562 30.1258 57.6562Z" fill="#485F69"/>
<path d="M56.485 28.7055H44.7522L50.3014 23.1565C51.672 21.7857 51.672 19.5553 50.3014 18.1846L33.1448 1.02797C31.7739 -0.342773 29.5435 -0.342539 28.1728 1.02797L1.02886 28.1719C-0.34165 29.5426 -0.34165 31.773 1.02886 33.1438L14.5821 46.697V56.484C14.5821 58.4225 16.1592 59.9998 18.0978 59.9998H24.4004C25.0475 59.9998 25.5723 59.475 25.5723 58.8279C25.5723 58.1808 25.0475 57.656 24.4004 57.656H18.0978C17.4516 57.656 16.9259 57.1303 16.9259 56.4841V32.2213C16.9259 31.5751 17.4516 31.0494 18.0978 31.0494H56.485C57.1312 31.0494 57.6569 31.5751 57.6569 32.2213V56.4841C57.6569 57.1303 57.1312 57.656 56.485 57.656H34.8305C34.1834 57.656 33.6587 58.1808 33.6587 58.8279C33.6587 59.475 34.1834 59.9998 34.8305 59.9998H56.4851C58.4237 59.9998 60.0009 58.4227 60.0009 56.484V32.2213C60.0008 30.2828 58.4237 28.7055 56.485 28.7055ZM2.68624 31.4866C2.22944 31.0297 2.22944 30.2862 2.68636 29.8293L29.8303 2.68547C30.2873 2.22844 31.0308 2.22867 31.4875 2.68547L33.2643 4.46227L4.46304 33.2634L2.68624 31.4866ZM14.5821 43.3822L9.9289 38.7292L14.5821 34.0759V43.3822ZM34.4336 28.7055L37.0995 26.0396C37.5571 25.582 37.5571 24.84 37.0995 24.3824C36.6418 23.9248 35.9 23.9248 35.4421 24.3824L31.1191 28.7055H28.0273L34.3883 22.3445C34.8459 21.8869 34.8459 21.1448 34.3883 20.6871C33.9305 20.2295 33.1887 20.2295 32.7309 20.6871L24.7125 28.7055H19.9526L32.8844 15.7734C33.342 15.3158 33.342 14.5738 32.8844 14.1162C32.4267 13.6586 31.6849 13.6586 31.227 14.1162L8.27163 37.0718L6.12042 34.9208L34.9216 6.11965L48.6439 19.8418C48.8651 20.0632 48.987 20.3576 48.987 20.6706C48.987 20.9836 48.8651 21.2779 48.6438 21.4992L41.4372 28.7057H34.4336V28.7055Z" fill="#485F69"/>
<path d="M36.0015 10.9991C35.7835 10.7812 35.4813 10.6558 35.1718 10.6558C34.8636 10.6559 34.5613 10.7812 34.3445 10.9991C34.1253 11.2171 34.001 11.5194 34.001 11.8276C34.001 12.1358 34.1253 12.4382 34.3445 12.6562C34.5613 12.8741 34.8636 12.9995 35.1718 12.9995C35.4813 12.9995 35.7835 12.8741 36.0015 12.6562C36.2195 12.4382 36.3448 12.1358 36.3448 11.8276C36.3448 11.5194 36.2196 11.2171 36.0015 10.9991Z" fill="#485F69"/>
</g>
<defs>
<clipPath id="clip0">
<rect width="60" height="60" fill="white"/>
</clipPath>
</defs>
</svg>
