<svg width="138" height="138" viewBox="0 0 138 138" fill="none" xmlns="http://www.w3.org/2000/svg">
<g clip-path="url(#clip0)">
<path d="M58.7898 5.97304C59.2439 5.7774 59.6998 5.85798 60.0443 6.09568C60.5437 6.44027 60.8084 7.11518 60.4916 7.7581C56.3109 16.2442 61.5107 27.8001 50.8556 31.7017L43.413 26.5662C41.6049 21.0735 48.7751 10.2877 58.7898 5.97304Z" fill="#10CA39"/>
<path d="M47.5488 36.4941L40.1063 31.3586L35.7523 37.6686L43.1949 42.8041L47.5488 36.4941Z" fill="#10CA39"/>
<path d="M12.9195 84.1021C12.0595 85.2814 9.98428 85.8985 8.61666 84.9548C7.24903 84.0112 7.08951 81.852 7.88682 80.6294L32.582 42.5556L39.7505 47.502L12.9195 84.1021Z" fill="#10CA39"/>
<path d="M89.9755 87.4757C91.1637 88.6184 91.2664 90.5978 90.1947 91.7119C89.123 92.8261 87.1414 92.8005 85.9532 91.6577C84.8005 90.5491 84.7647 88.7084 85.8734 87.5557C86.9821 86.4028 88.8228 86.367 89.9755 87.4757Z" fill="#10CA39"/>
<path d="M67.0465 97.4564C68.1997 98.5657 68.2351 100.406 67.1263 101.558C66.0177 102.711 64.1775 102.748 63.0243 101.638C61.8715 100.53 61.8356 98.6889 62.9444 97.5363C64.0533 96.3835 65.8938 96.3476 67.0465 97.4564Z" fill="#10CA39"/>
<path d="M95.3109 66.8005C95.1805 65.2037 96.3691 63.8035 97.9659 63.673C99.5627 63.5426 100.963 64.7313 101.093 66.328C101.224 67.9248 100.035 69.325 98.4384 69.4555C96.8416 69.5859 95.4414 68.3973 95.3109 66.8005Z" fill="#10CA39"/>
<path d="M62.0825 36.7362C70.9864 23.8324 91.2118 24.1274 105.539 34.0158C120.907 44.6222 129.488 66.2655 110.016 94.4847C89.234 124.603 61.625 124.028 46.2544 113.422C35.7908 106.202 30.9996 94.3303 37.9002 84.3296C48.6644 68.7297 54.8299 85.2376 62.8471 73.6188C71.2278 61.4732 48.8642 55.8929 62.0825 36.7362ZM104.238 60.2794C100.78 56.9526 95.259 57.06 91.9321 60.5189C88.6053 63.9777 88.7127 69.4984 92.1715 72.8252C95.6304 76.152 101.151 76.0446 104.478 72.5858C107.805 69.127 107.697 63.6063 104.238 60.2794ZM88.1383 98.336C90.5409 98.3437 92.7559 97.4195 94.3767 95.7342C95.9977 94.0488 96.835 91.7997 96.7339 89.3993C96.6361 87.0652 95.6647 84.8971 93.9979 83.2939C90.539 79.967 85.0184 80.0745 81.6915 83.5333C78.3647 86.9921 78.4721 92.5128 81.931 95.8396C83.5973 97.4422 85.8021 98.3291 88.1383 98.336ZM59.002 105.821C62.4608 109.147 67.9815 109.04 71.3083 105.581C74.6351 102.122 74.5277 96.6017 71.0689 93.2749C67.61 89.9481 62.0894 90.0555 58.7625 93.5143C55.4358 96.973 55.5431 102.494 59.002 105.821ZM78.6092 51.9544C82.068 55.2812 87.5887 55.1738 90.9155 51.715C94.2423 48.2561 94.1349 42.7355 90.6761 39.4086C87.2172 36.0818 81.6966 36.1892 78.3697 39.6481C75.0429 43.1069 75.1503 48.6276 78.6092 51.9544Z" fill="#10CA39"/>
<path d="M81.836 46.3527C81.456 44.796 82.41 43.2259 83.9667 42.8459C85.5235 42.4659 87.0936 43.4199 87.4736 44.9766C87.8536 46.5334 86.8996 48.1035 85.3429 48.4835C83.7861 48.8634 82.216 47.9095 81.836 46.3527Z" fill="#10CA39"/>
</g>
<defs>
<clipPath id="clip0">
<rect width="99.0273" height="99.0273" fill="white" transform="matrix(-0.823074 -0.567934 -0.567934 0.823074 137.748 56.2402)"/>
</clipPath>
</defs>
</svg>
