<svg width="110" height="110" viewBox="0 0 110 110" fill="none" xmlns="http://www.w3.org/2000/svg">
<g clip-path="url(#clip0)">
<path d="M5.85989 14.4344C6.07151 13.9875 6.46702 13.7468 6.88267 13.6976C7.4852 13.6263 8.12977 13.9581 8.31678 14.65C10.7852 23.7823 22.3234 29.0213 16.9028 38.9898L7.923 40.0521C2.93678 37.1236 1.19305 24.2898 5.85989 14.4344Z" fill="#10CA39"/>
<path d="M17.5869 44.772L8.60712 45.8343L9.50773 53.4475L18.4875 52.3852L17.5869 44.772Z" fill="#10CA39"/>
<path d="M23.047 103.389C23.1806 104.842 22.0306 106.676 20.3805 106.872C18.7304 107.067 17.1841 105.551 16.9748 104.107L10.3573 59.2107L19.0063 58.1875L23.047 103.389Z" fill="#10CA39"/>
<path d="M83.1185 55.0097C84.7654 55.0824 86.1502 56.5005 86.0819 58.0448C86.0135 59.5892 84.5091 60.8793 82.8622 60.8065C81.2644 60.7359 80.0214 59.3778 80.092 57.78C80.1626 56.182 81.5207 54.9391 83.1185 55.0097Z" fill="#10CA39"/>
<path d="M72.5008 77.651C74.0993 77.7217 75.3417 79.0797 75.2709 80.6775C75.2003 82.2753 73.843 83.5183 72.2444 83.4476C70.6466 83.377 69.4035 82.019 69.4743 80.4212C69.5451 78.8232 70.9029 77.5802 72.5008 77.651Z" fill="#10CA39"/>
<path d="M73.4636 35.9646C72.3107 34.8521 72.2779 33.0157 73.3903 31.8628C74.5027 30.7099 76.3391 30.6771 77.4921 31.7895C78.645 32.9019 78.6778 34.7383 77.5654 35.8912C76.4529 37.0442 74.6165 37.077 73.4636 35.9646Z" fill="#10CA39"/>
<path d="M28.6571 35.3508C26.8154 19.7817 42.1925 6.64042 59.4807 4.59723C78.0239 2.40577 98.7651 12.9829 102.793 47.0305C107.092 83.3697 85.987 101.179 67.4418 103.373C54.817 104.867 43.3766 99.1204 41.9492 87.0542C39.7227 68.2321 55.2575 76.5504 53.5991 62.5318C51.8656 47.8775 31.3914 58.4642 28.6571 35.3508ZM75.8566 25.1715C71.0622 24.9594 66.989 28.6875 66.7769 33.4819C66.5649 38.2763 70.293 42.3495 75.0874 42.5616C79.8818 42.7737 83.9549 39.0455 84.167 34.2511C84.3791 29.4567 80.651 25.3836 75.8566 25.1715ZM88.9146 64.3761C90.7233 62.7945 91.7753 60.6373 91.8786 58.3014C91.9818 55.9653 91.1244 53.7238 89.4625 51.9887C87.847 50.3012 85.6854 49.3155 83.3749 49.2133C78.5805 49.0012 74.5073 52.7293 74.2953 57.5237C74.0832 62.3181 77.8113 66.3913 82.6057 66.6034C84.9154 66.7054 87.1564 65.9145 88.9146 64.3761ZM71.9883 89.2447C76.7827 89.4568 80.8559 85.7287 81.068 80.9343C81.2801 76.1399 77.5519 72.0667 72.7575 71.8547C67.9631 71.6426 63.89 75.3707 63.6779 80.1651C63.4658 84.9593 67.1939 89.0327 71.9883 89.2447ZM51.1175 35.8554C55.9119 36.0675 59.985 32.3394 60.1971 27.545C60.4092 22.7506 56.6811 18.6774 51.8867 18.4653C47.0923 18.2532 43.0191 21.9814 42.807 26.7758C42.5949 31.5702 46.3231 35.6433 51.1175 35.8554Z" fill="#10CA39"/>
<path d="M49.8385 29.5187C48.5247 28.6012 48.2035 26.7923 49.121 25.4785C50.0386 24.1647 51.8474 23.8435 53.1612 24.761C54.475 25.6786 54.7962 27.4874 53.8787 28.8012C52.9612 30.115 51.1523 30.4362 49.8385 29.5187Z" fill="#10CA39"/>
</g>
<defs>
<clipPath id="clip0">
<rect width="99.0273" height="99.0273" fill="white" transform="matrix(-0.993076 0.117478 0.117478 0.993076 98.3418 0)"/>
</clipPath>
</defs>
</svg>
