<svg width="138" height="138" viewBox="0 0 138 138" fill="none" xmlns="http://www.w3.org/2000/svg">
<g clip-path="url(#clip0)">
<path d="M78.9583 5.97304C78.5042 5.7774 78.0482 5.85798 77.7037 6.09568C77.2043 6.44027 76.9397 7.11518 77.2564 7.7581C81.4372 16.2442 76.2373 27.8001 86.8925 31.7017L94.3351 26.5662C96.1432 21.0735 88.9729 10.2877 78.9583 5.97304Z" fill="#10CA39"/>
<path d="M90.1992 36.4941L97.6418 31.3586L101.996 37.6686L94.5532 42.8041L90.1992 36.4941Z" fill="#10CA39"/>
<path d="M124.829 84.1021C125.689 85.2814 127.764 85.8985 129.131 84.9548C130.499 84.0112 130.659 81.852 129.861 80.6294L105.166 42.5556L97.9976 47.502L124.829 84.1021Z" fill="#10CA39"/>
<path d="M47.7725 87.4757C46.5843 88.6184 46.4817 90.5978 47.5533 91.7119C48.625 92.8261 50.6066 92.8005 51.7948 91.6577C52.9476 90.5491 52.9833 88.7084 51.8747 87.5557C50.7659 86.4028 48.9253 86.367 47.7725 87.4757Z" fill="#10CA39"/>
<path d="M70.7016 97.4564C69.5483 98.5657 69.5129 100.406 70.6217 101.558C71.7304 102.711 73.5705 102.748 74.7238 101.638C75.8765 100.53 75.9124 98.6889 74.8036 97.5363C73.6947 96.3835 71.8542 96.3476 70.7016 97.4564Z" fill="#10CA39"/>
<path d="M42.4371 66.8005C42.5676 65.2037 41.3789 63.8035 39.7821 63.673C38.1854 63.5426 36.7852 64.7313 36.6547 66.328C36.5242 67.9248 37.7129 69.325 39.3097 69.4555C40.9064 69.5859 42.3066 68.3973 42.4371 66.8005Z" fill="#10CA39"/>
<path d="M75.6655 36.7362C66.7616 23.8324 46.5363 24.1274 32.2089 34.0158C16.8415 44.6222 8.26021 66.2655 27.7319 94.4847C48.514 124.603 76.1231 124.028 91.4936 113.422C101.957 106.202 106.748 94.3303 99.8478 84.3296C89.0836 68.7297 82.9181 85.2376 74.901 73.6188C66.5203 61.4732 88.8839 55.8929 75.6655 36.7362ZM33.5096 60.2794C36.9684 56.9526 42.4891 57.06 45.8159 60.5189C49.1427 63.9777 49.0353 69.4984 45.5765 72.8252C42.1177 76.152 36.597 76.0446 33.2702 72.5858C29.9433 69.127 30.0508 63.6063 33.5096 60.2794ZM49.6097 98.336C47.2071 98.3437 44.9922 97.4195 43.3713 95.7342C41.7504 94.0488 40.913 91.7997 41.0142 89.3993C41.112 87.0652 42.0833 84.8971 43.7502 83.2939C47.209 79.967 52.7297 80.0745 56.0565 83.5333C59.3833 86.9921 59.2759 92.5128 55.8171 95.8396C54.1508 97.4422 51.9459 98.3291 49.6097 98.336ZM78.7461 105.821C75.2873 109.147 69.7666 109.04 66.4398 105.581C63.1129 102.122 63.2204 96.6017 66.6792 93.2749C70.138 89.9481 75.6587 90.0555 78.9855 93.5143C82.3122 96.973 82.2049 102.494 78.7461 105.821ZM59.1389 51.9544C55.6801 55.2812 50.1594 55.1738 46.8326 51.715C43.5057 48.2561 43.6132 42.7355 47.072 39.4086C50.5308 36.0818 56.0515 36.1892 59.3783 39.6481C62.7051 43.1069 62.5977 48.6276 59.1389 51.9544Z" fill="#10CA39"/>
<path d="M55.912 46.3527C56.292 44.796 55.3381 43.2259 53.7813 42.8459C52.2245 42.4659 50.6545 43.4199 50.2745 44.9766C49.8945 46.5334 50.8484 48.1035 52.4052 48.4835C53.962 48.8634 55.532 47.9095 55.912 46.3527Z" fill="#10CA39"/>
</g>
<defs>
<clipPath id="clip0">
<rect width="99.0273" height="99.0273" fill="white" transform="translate(0 56.2402) rotate(-34.6063)"/>
</clipPath>
</defs>
</svg>
