<svg width="138" height="138" viewBox="0 0 138 138" fill="none" xmlns="http://www.w3.org/2000/svg">
<g clip-path="url(#clip0)">
<path d="M58.7893 5.97304C59.2434 5.7774 59.6993 5.85798 60.0438 6.09568C60.5432 6.44027 60.8079 7.11518 60.4911 7.7581C56.3104 16.2442 61.5103 27.8001 50.8551 31.7017L43.4125 26.5662C41.6044 21.0735 48.7747 10.2877 58.7893 5.97304Z" fill="#10CA39"/>
<path d="M47.5483 36.4941L40.1058 31.3586L35.7518 37.6686L43.1944 42.8041L47.5483 36.4941Z" fill="#10CA39"/>
<path d="M12.9191 84.1021C12.059 85.2814 9.98379 85.8985 8.61617 84.9548C7.24854 84.0112 7.08902 81.852 7.88634 80.6294L32.5815 42.5556L39.75 47.502L12.9191 84.1021Z" fill="#10CA39"/>
<path d="M89.975 87.4757C91.1632 88.6184 91.2659 90.5978 90.1942 91.7119C89.1226 92.8261 87.1409 92.8005 85.9527 91.6577C84.8 90.5491 84.7642 88.7084 85.8729 87.5557C86.9816 86.4028 88.8223 86.367 89.975 87.4757Z" fill="#10CA39"/>
<path d="M67.046 97.4564C68.1993 98.5657 68.2346 100.406 67.1258 101.558C66.0172 102.711 64.177 102.748 63.0238 101.638C61.871 100.53 61.8351 98.6889 62.9439 97.5363C64.0528 96.3835 65.8933 96.3476 67.046 97.4564Z" fill="#10CA39"/>
<path d="M95.3104 66.8005C95.18 65.2037 96.3687 63.8035 97.9654 63.673C99.5622 63.5426 100.962 64.7313 101.093 66.328C101.223 67.9248 100.035 69.325 98.4379 69.4555C96.8411 69.5859 95.4409 68.3973 95.3104 66.8005Z" fill="#10CA39"/>
<path d="M62.0821 36.7362C70.9859 23.8324 91.2113 24.1274 105.539 34.0158C120.906 44.6222 129.487 66.2655 110.016 94.4847C89.2336 124.603 61.6245 124.028 46.2539 113.422C35.7903 106.202 30.9991 94.3303 37.8997 84.3296C48.664 68.7297 54.8294 85.2376 62.8466 73.6188C71.2273 61.4732 48.8637 55.8929 62.0821 36.7362ZM104.238 60.2794C100.779 56.9526 95.2585 57.06 91.9316 60.5189C88.6048 63.9777 88.7122 69.4984 92.1711 72.8252C95.6299 76.152 101.151 76.0446 104.477 72.5858C107.804 69.127 107.697 63.6063 104.238 60.2794ZM88.1379 98.336C90.5404 98.3437 92.7554 97.4195 94.3762 95.7342C95.9972 94.0488 96.8345 91.7997 96.7334 89.3993C96.6356 87.0652 95.6642 84.8971 93.9974 83.2939C90.5386 79.967 85.0179 80.0745 81.691 83.5333C78.3642 86.9921 78.4716 92.5128 81.9305 95.8396C83.5968 97.4422 85.8016 98.3291 88.1379 98.336ZM59.0015 105.821C62.4603 109.147 67.981 109.04 71.3078 105.581C74.6346 102.122 74.5272 96.6017 71.0684 93.2749C67.6096 89.9481 62.0889 90.0555 58.762 93.5143C55.4353 96.973 55.5426 102.494 59.0015 105.821ZM78.6087 51.9544C82.0675 55.2812 87.5882 55.1738 90.915 51.715C94.2418 48.2561 94.1344 42.7355 90.6756 39.4086C87.2168 36.0818 81.6961 36.1892 78.3692 39.6481C75.0424 43.1069 75.1498 48.6276 78.6087 51.9544Z" fill="#10CA39"/>
<path d="M81.8355 46.3527C81.4555 44.796 82.4095 43.2259 83.9663 42.8459C85.523 42.4659 87.0931 43.4199 87.4731 44.9766C87.8531 46.5334 86.8991 48.1035 85.3424 48.4835C83.7856 48.8634 82.2155 47.9095 81.8355 46.3527Z" fill="#10CA39"/>
</g>
<defs>
<clipPath id="clip0">
<rect width="99.0273" height="99.0273" fill="white" transform="matrix(-0.823074 -0.567934 -0.567934 0.823074 137.748 56.2402)"/>
</clipPath>
</defs>
</svg>
