<svg width="53" height="107" viewBox="0 0 53 107" fill="none" xmlns="http://www.w3.org/2000/svg">
<g clip-path="url(#clip0)">
<path d="M12.6834 3.8738C12.9769 3.47588 13.4113 3.31556 13.8286 3.34713C14.4336 3.39291 15.0025 3.8423 15.0531 4.55721C15.7216 13.9936 26.0388 21.3512 18.8045 30.093L9.78782 29.4108C5.45689 25.5791 6.21054 12.6494 12.6834 3.8738Z" fill="#10CA39"/>
<path d="M18.3652 35.8989L9.34859 35.2167L8.77021 42.8612L17.7869 43.5434L18.3652 35.8989Z" fill="#10CA39"/>
<path d="M12.4656 94.4726C12.3175 95.9246 10.8365 97.504 9.17968 97.3786C7.52281 97.2532 6.29635 95.4691 6.36844 94.0112L8.4971 48.6798L17.1816 49.3369L12.4656 94.4726Z" fill="#10CA39"/>
<path d="M31.039 28.7792C32.2218 13.1462 49.8367 3.20296 67.1954 4.51826C85.8143 5.9291 104.138 20.2929 101.551 54.4803C98.7905 90.9685 74.6582 104.393 56.0368 102.984C43.3602 102.025 33.2366 94.1886 34.1533 82.0729C35.5832 63.1736 49.2311 74.3207 50.2961 60.2446C51.4094 45.5302 29.2831 51.9873 31.039 28.7792ZM79.3148 27.8547C74.6504 26.7257 69.937 29.6021 68.808 34.2666C67.6791 38.931 70.5555 43.6443 75.2199 44.7733C79.8843 45.9023 84.5977 43.0259 85.7266 38.3614C86.8556 33.697 83.9792 28.9837 79.3148 27.8547ZM84.5999 68.8374C86.6786 67.6326 88.1254 65.7177 88.6754 63.4451C89.2254 61.1723 88.8144 58.8078 87.5168 56.7859C86.2554 54.8195 84.3234 53.4369 82.0756 52.8929C77.4111 51.7639 72.6978 54.6403 71.5688 59.3048C70.4399 63.9692 73.3163 68.6825 77.9807 69.8115C80.2277 70.3553 82.579 70.0095 84.5999 68.8374ZM63.2124 89.9921C67.8768 91.1211 72.5901 88.2447 73.7191 83.5803C74.8481 78.9159 71.9717 74.2025 67.3072 73.0735C62.6428 71.9446 57.9295 74.821 56.8005 79.4854C55.6716 84.1496 58.548 88.8631 63.2124 89.9921ZM52.9843 33.5882C57.6487 34.7172 62.362 31.8407 63.491 27.1763C64.62 22.5119 61.7436 17.7986 57.0792 16.6696C52.4147 15.5406 47.7014 18.417 46.5724 23.0815C45.4435 27.7459 48.3199 32.4592 52.9843 33.5882Z" fill="#10CA39"/>
<path d="M52.9462 27.1238C51.8331 25.971 51.8652 24.1342 53.018 23.021C54.1708 21.9079 56.0077 21.9401 57.1208 23.0929C58.2339 24.2457 58.2017 26.0825 57.0489 27.1956C55.8962 28.3087 54.0593 28.2766 52.9462 27.1238Z" fill="#10CA39"/>
</g>
<defs>
<clipPath id="clip0">
<rect width="99.0273" height="99.0273" fill="white" transform="matrix(-0.99715 -0.0754444 -0.0754444 0.99715 106.216 7.4707)"/>
</clipPath>
</defs>
</svg>
