<svg width="92" height="121" viewBox="0 0 92 121" fill="none" xmlns="http://www.w3.org/2000/svg">
<g clip-path="url(#clip0)">
<path d="M32.9583 5.975C32.5042 5.77935 32.0482 5.85993 31.7037 6.09764C31.2043 6.44222 30.9397 7.11713 31.2564 7.76005C35.4372 16.2461 30.2373 27.8021 40.8925 31.7036L48.3351 26.5681C50.1432 21.0755 42.9729 10.2897 32.9583 5.975Z" fill="#10CA39"/>
<path d="M44.1992 36.4961L51.6418 31.3606L55.9957 37.6705L48.5532 42.806L44.1992 36.4961Z" fill="#10CA39"/>
<path d="M78.8285 84.104C79.6885 85.2833 81.7638 85.9005 83.1314 84.9568C84.499 84.0131 84.6585 81.8539 83.8612 80.6314L59.166 42.5576L51.9976 47.5039L78.8285 84.104Z" fill="#10CA39"/>
<path d="M1.77251 87.4776C0.58431 88.6204 0.48168 90.5998 1.55334 91.7139C2.625 92.828 4.60664 92.8024 5.79484 91.6597C6.94759 90.551 6.98333 88.7104 5.87468 87.5576C4.76591 86.4047 2.92526 86.369 1.77251 87.4776Z" fill="#10CA39"/>
<path d="M24.7016 97.4584C23.5483 98.5676 23.5129 100.408 24.6217 101.56C25.7304 102.713 27.5705 102.75 28.7238 101.64C29.8765 100.532 29.9124 98.6909 28.8036 97.5382C27.6947 96.3854 25.8542 96.3496 24.7016 97.4584Z" fill="#10CA39"/>
<path d="M29.6655 36.7382C20.7616 23.8343 0.53628 24.1293 -13.7911 34.0178C-29.1585 44.6241 -37.7398 66.2675 -18.2681 94.4866C2.51401 124.605 30.1231 124.03 45.4936 113.424C55.9572 106.204 60.7484 94.3322 53.8478 84.3316C43.0836 68.7316 36.9181 85.2396 28.901 73.6207C20.5203 61.4751 42.8839 55.8948 29.6655 36.7382ZM-12.4904 60.2814C-9.03159 56.9546 -3.51091 57.062 -0.184082 60.5208C3.14275 63.9796 3.03532 69.5003 -0.423502 72.8272C-3.88233 76.154 -9.40301 76.0466 -12.7298 72.5877C-16.0567 69.1289 -15.9492 63.6082 -12.4904 60.2814ZM3.6097 98.3379C1.20712 98.3457 -1.00784 97.4214 -2.62868 95.7362C-4.24962 94.0508 -5.08696 91.8017 -4.98581 89.4013C-4.88804 87.0671 -3.91667 84.899 -2.24982 83.2958C1.209 79.969 6.72968 80.0764 10.0565 83.5352C13.3833 86.9941 13.2759 92.5147 9.81709 95.8416C8.15076 97.4442 5.94594 98.3311 3.6097 98.3379ZM32.7461 105.823C29.2873 109.149 23.7666 109.042 20.4398 105.583C17.1129 102.124 17.2204 96.6037 20.6792 93.2769C24.138 89.95 29.6587 90.0574 32.9855 93.5163C36.3122 96.9749 36.2049 102.496 32.7461 105.823ZM13.1389 51.9563C9.68007 55.2832 4.15939 55.1757 0.832566 51.7169C-2.49427 48.2581 -2.38684 42.7374 1.07198 39.4106C4.53081 36.0838 10.0515 36.1912 13.3783 39.65C16.7051 43.1088 16.5977 48.6295 13.1389 51.9563Z" fill="#10CA39"/>
<path d="M9.91202 46.3547C10.292 44.7979 9.33806 43.2279 7.7813 42.8479C6.22453 42.4679 4.65448 43.4218 4.27448 44.9786C3.89448 46.5354 4.84843 48.1054 6.4052 48.4854C7.96196 48.8654 9.53202 47.9114 9.91202 46.3547Z" fill="#10CA39"/>
</g>
<defs>
<clipPath id="clip0">
<rect width="99.0273" height="99.0273" fill="white" transform="translate(-46 56.2422) rotate(-34.6063)"/>
</clipPath>
</defs>
</svg>
